<?xml version="1.0" encoding="utf-8"?>
<svg version="1.1" xmlns:xlink="http://www.w3.org/1999/xlink" width="24px" height="20px" xmlns="http://www.w3.org/2000/svg">
  <g transform="matrix(1 0 0 1 -1016 -160 )">
    <path d="M 11.1928251121076 15  L 11.9461883408072 15  L 13.5067264573991 13.3522727272727  L 11.4618834080717 11.1931818181818  L 9.90134529147982 12.8409090909091  L 9.90134529147982 13.6363636363636  L 11.1928251121076 13.6363636363636  L 11.1928251121076 15  Z M 17.8520179372197 5.24147727272727  C 18.0044843049327 5.08049242424242  18.0089686098655 4.92424242424242  17.8654708520179 4.77272727272727  C 17.7219730941704 4.62121212121212  17.5739910313901 4.62594696969697  17.4215246636771 4.78693181818182  L 12.7130044843049 9.75852272727273  C 12.5605381165919 9.91950757575758  12.5560538116592 10.0757575757576  12.6995515695067 10.2272727272727  C 12.8430493273543 10.3787878787879  12.9910313901345 10.374053030303  13.1434977578475 10.2130681818182  L 17.8520179372197 5.24147727272727  Z M 18.6726457399103 12.7982954545455  C 18.8520179372197 12.874053030303  18.9417040358744 13.0113636363636  18.9417040358744 13.2102272727273  L 18.9417040358744 15.9090909090909  C 18.9417040358744 17.0359848484848  18.5627802690583 17.9995265151515  17.804932735426 18.7997159090909  C 17.0470852017937 19.5999053030303  16.1345291479821 20  15.067264573991 20  L 3.87443946188341 20  C 2.80717488789238 20  1.89461883408072 19.5999053030303  1.13677130044843 18.7997159090909  C 0.378923766816143 17.9995265151515  0 17.0359848484848  0 15.9090909090909  L 0 4.09090909090909  C 0 2.96401515151515  0.378923766816143 2.00047348484848  1.13677130044843 1.20028409090909  C 1.89461883408072 0.400094696969695  2.80717488789238 0  3.87443946188341 0  L 15.067264573991 0  C 15.6322869955157 0  16.1569506726457 0.118371212121211  16.6412556053812 0.355113636363635  C 16.7757847533632 0.421401515151514  16.8565022421525 0.53030303030303  16.8834080717489 0.681818181818181  C 16.9103139013453 0.84280303030303  16.8699551569507 0.980113636363635  16.762331838565 1.09375  L 16.1031390134529 1.78977272727273  C 15.9775784753363 1.92234848484848  15.8340807174888 1.96022727272727  15.6726457399103 1.90340909090909  C 15.4663677130045 1.84659090909091  15.2645739910314 1.81818181818182  15.067264573991 2  L 3.87443946188341 2  C 3.28251121076233 1.81818181818182  2.77578475336323 2.0407196969697  2.3542600896861 2.48579545454545  C 1.93273542600897 2.93087121212121  1.7219730941704 3.46590909090909  2 4.09090909090909  L 2 15.9090909090909  C 1.7219730941704 16.5340909090909  1.93273542600897 17.0691287878788  2.3542600896861 17.5142045454545  C 2.77578475336323 17.9592803030303  3.28251121076233 18.1818181818182  3.87443946188341 18  L 15.067264573991 18  C 15.6591928251121 18.1818181818182  16.1659192825112 17.9592803030303  16.5874439461883 17.5142045454545  C 17.0089686098655 17.0691287878788  17.219730941704 16.5340909090909  17.219730941704 15.9090909090909  L 17.219730941704 14.1193181818182  C 17.219730941704 13.9962121212121  17.2600896860987 13.8920454545455  17.3408071748879 13.8068181818182  L 18.2017937219731 12.8977272727273  C 18.3363228699552 12.7556818181818  18.4932735426009 12.7225378787879  18.6726457399103 12.7982954545455  Z M 8.60986547085202 12.2727272727273  L 17.6502242152466 2.72727272727273  L 21.52466367713 6.81818181818182  L 12.4843049327354 16.3636363636364  L 8.60986547085202 16.3636363636364  L 8.60986547085202 12.2727272727273  Z M 24 3.63636363636364  C 24 4.01515151515151  23.8744394618834 4.33712121212121  23.6233183856502 4.60227272727273  L 22.3856502242152 5.90909090909091  L 18.5112107623318 1.81818181818182  L 19.7488789237668 0.511363636363635  C 20 0.246212121212119  20.304932735426 0.113636363636365  20.6636771300448 0.113636363636365  C 21.0224215246637 0.113636363636365  21.3273542600897 0.246212121212119  21.5784753363229 0.511363636363635  L 23.6233183856502 2.67045454545455  C 23.8744394618834 2.93560606060606  24 3.25757575757576  24 3.63636363636364  Z " fill-rule="nonzero" fill="#000000" stroke="none" transform="matrix(1 0 0 1 1016 160 )" />
  </g>
</svg>