<?xml version="1.0" encoding="utf-8"?>
<svg version="1.1" xmlns:xlink="http://www.w3.org/1999/xlink" width="15px" height="14px" xmlns="http://www.w3.org/2000/svg">
  <g transform="matrix(1 0 0 1 -58 -120 )">
    <path d="M 4 5  C 4 5.72395833333333  4.2109375 6.390625  4.6328125 7  C 3.7890625 7.02604166666667  3.09895833333333 7.359375  2.5625 8  L 1.515625 8  C 1.08854166666667 8  0.729166666666667 7.89453125  0.4375 7.68359375  C 0.145833333333333 7.47265625  0 7.1640625  0 6.7578125  C 0 4.91927083333333  0.322916666666667 4  0.96875 4  C 1 4  1.11328125 4.0546875  1.30859375 4.1640625  C 1.50390625 4.2734375  1.7578125 4.38411458333333  2.0703125 4.49609375  C 2.3828125 4.60807291666667  2.69270833333333 4.6640625  3 4.6640625  C 3.34895833333333 4.6640625  3.6953125 4.60416666666667  4.0390625 4.484375  C 4.01302083333333 4.67708333333333  4 4.84895833333333  4 5  Z M 12.97265625 11.16796875  C 12.9908854166667 11.4309895833333  13 11.7005208333333  13 11.9765625  C 13 12.6015625  12.8098958333333 13.0950520833333  12.4296875 13.45703125  C 12.0494791666667 13.8190104166667  11.5442708333333 14  10.9140625 14  L 4.0859375 14  C 3.45572916666667 14  2.95052083333333 13.8190104166667  2.5703125 13.45703125  C 2.19010416666667 13.0950520833333  2 12.6015625  2 11.9765625  C 2 11.7005208333333  2.00911458333333 11.4309895833333  2.02734375 11.16796875  C 2.04557291666667 10.9049479166667  2.08203125 10.62109375  2.13671875 10.31640625  C 2.19140625 10.01171875  2.26041666666667 9.72916666666667  2.34375 9.46875  C 2.42708333333333 9.20833333333333  2.5390625 8.95442708333333  2.6796875 8.70703125  C 2.8203125 8.45963541666667  2.98177083333333 8.24869791666667  3.1640625 8.07421875  C 3.34635416666667 7.89973958333333  3.56901041666667 7.76041666666667  3.83203125 7.65625  C 4.09505208333333 7.55208333333333  4.38541666666667 7.5  4.703125 7.5  C 4.75520833333333 7.5  4.8671875 7.55598958333333  5.0390625 7.66796875  C 5.2109375 7.77994791666667  5.40104166666667 7.90494791666667  5.609375 8.04296875  C 5.81770833333333 8.18098958333333  6.09635416666667 8.30598958333333  6.4453125 8.41796875  C 6.79427083333333 8.52994791666667  7.14583333333333 8.5859375  7.5 8.5859375  C 7.85416666666667 8.5859375  8.20572916666667 8.52994791666667  8.5546875 8.41796875  C 8.90364583333333 8.30598958333333  9.18229166666667 8.18098958333333  9.390625 8.04296875  C 9.59895833333333 7.90494791666667  9.7890625 7.77994791666667  9.9609375 7.66796875  C 10.1328125 7.55598958333333  10.2447916666667 7.5  10.296875 7.5  C 10.6145833333333 7.5  10.9049479166667 7.55208333333333  11.16796875 7.65625  C 11.4309895833333 7.76041666666667  11.6536458333333 7.89973958333333  11.8359375 8.07421875  C 12.0182291666667 8.24869791666667  12.1796875 8.45963541666667  12.3203125 8.70703125  C 12.4609375 8.95442708333333  12.5729166666667 9.20833333333333  12.65625 9.46875  C 12.7395833333333 9.72916666666667  12.80859375 10.01171875  12.86328125 10.31640625  C 12.91796875 10.62109375  12.9544270833333 10.9049479166667  12.97265625 11.16796875  Z M 4.4140625 0.5859375  C 4.8046875 0.9765625  5 1.44791666666667  5 2  C 5 2.55208333333333  4.8046875 3.0234375  4.4140625 3.4140625  C 4.0234375 3.8046875  3.55208333333333 4  3 4  C 2.44791666666667 4  1.9765625 3.8046875  1.5859375 3.4140625  C 1.1953125 3.0234375  1 2.55208333333333  1 2  C 1 1.44791666666667  1.1953125 0.9765625  1.5859375 0.5859375  C 1.9765625 0.195312500000001  2.44791666666667 0  3 0  C 3.55208333333333 0  4.0234375 0.195312500000001  4.4140625 0.5859375  Z M 9.62109375 2.87890625  C 10.20703125 3.46484375  10.5 4.171875  10.5 5  C 10.5 5.828125  10.20703125 6.53515625  9.62109375 7.12109375  C 9.03515625 7.70703125  8.328125 8  7.5 8  C 6.671875 8  5.96484375 7.70703125  5.37890625 7.12109375  C 4.79296875 6.53515625  4.5 5.828125  4.5 5  C 4.5 4.171875  4.79296875 3.46484375  5.37890625 2.87890625  C 5.96484375 2.29296875  6.671875 2  7.5 2  C 8.328125 2  9.03515625 2.29296875  9.62109375 2.87890625  Z M 14.03125 4  C 14.6770833333333 4  15 4.91927083333333  15 6.7578125  C 15 7.1640625  14.8541666666667 7.47265625  14.5625 7.68359375  C 14.2708333333333 7.89453125  13.9114583333333 8  13.484375 8  L 12.4375 8  C 11.9010416666667 7.359375  11.2109375 7.02604166666667  10.3671875 7  C 10.7890625 6.390625  11 5.72395833333333  11 5  C 11 4.84895833333333  10.9869791666667 4.67708333333333  10.9609375 4.484375  C 11.3046875 4.60416666666667  11.6510416666667 4.6640625  12 4.6640625  C 12.3072916666667 4.6640625  12.6171875 4.60807291666667  12.9296875 4.49609375  C 13.2421875 4.38411458333333  13.49609375 4.2734375  13.69140625 4.1640625  C 13.88671875 4.0546875  14 4  14.03125 4  Z M 13.4140625 0.5859375  C 13.8046875 0.9765625  14 1.44791666666667  14 2  C 14 2.55208333333333  13.8046875 3.0234375  13.4140625 3.4140625  C 13.0234375 3.8046875  12.5520833333333 4  12 4  C 11.4479166666667 4  10.9765625 3.8046875  10.5859375 3.4140625  C 10.1953125 3.0234375  10 2.55208333333333  10 2  C 10 1.44791666666667  10.1953125 0.9765625  10.5859375 0.5859375  C 10.9765625 0.195312500000001  11.4479166666667 0  12 0  C 12.5520833333333 0  13.0234375 0.195312500000001  13.4140625 0.5859375  Z " fill-rule="nonzero" fill="#ffffff" stroke="none" transform="matrix(1 0 0 1 58 120 )" />
  </g>
</svg>