<?xml version="1.0" encoding="utf-8"?>
<svg version="1.1" xmlns:xlink="http://www.w3.org/1999/xlink" width="15px" height="12px" xmlns="http://www.w3.org/2000/svg">
  <g transform="matrix(1 0 0 1 -52 -796 )">
    <path d="M 6.99551569506727 9  L 7.46636771300448 9  L 8.44170403587444 8.01136363636364  L 7.16367713004484 6.71590909090909  L 6.18834080717489 7.70454545454546  L 6.18834080717489 8.18181818181818  L 6.99551569506727 8.18181818181818  L 6.99551569506727 9  Z M 11.1575112107623 3.14488636363636  C 11.252802690583 3.04829545454545  11.2556053811659 2.95454545454545  11.1659192825112 2.86363636363636  C 11.0762331838565 2.77272727272727  10.9837443946188 2.77556818181818  10.8884529147982 2.87215909090909  L 7.94562780269058 5.85511363636364  C 7.85033632286996 5.95170454545455  7.847533632287 6.04545454545454  7.9372197309417 6.13636363636364  C 8.02690582959641 6.22727272727273  8.11939461883408 6.22443181818182  8.21468609865471 6.12784090909091  L 11.1575112107623 3.14488636363636  Z M 11.6704035874439 7.67897727272727  C 11.7825112107623 7.72443181818182  11.8385650224215 7.80681818181818  11.8385650224215 7.92613636363636  L 11.8385650224215 9.54545454545455  C 11.8385650224215 10.2215909090909  11.6017376681614 10.7997159090909  11.1280829596413 11.2798295454545  C 10.6544282511211 11.7599431818182  10.0840807174888 12  9.41704035874439 12  L 2.42152466367713 12  C 1.75448430493274 12  1.18413677130045 11.7599431818182  0.710482062780269 11.2798295454545  C 0.23682735426009 10.7997159090909  0 10.2215909090909  0 9.54545454545455  L 0 2.45454545454546  C 0 1.77840909090909  0.23682735426009 1.20028409090909  0.710482062780269 0.720170454545455  C 1.18413677130045 0.240056818181817  1.75448430493274 0  2.42152466367713 0  L 9.41704035874439 0  C 9.77017937219731 0  10.0980941704036 0.0710227272727266  10.4007847533632 0.213068181818181  C 10.484865470852 0.252840909090908  10.5353139013453 0.318181818181818  10.5521300448431 0.409090909090909  C 10.5689461883408 0.505681818181818  10.5437219730942 0.588068181818181  10.4764573991031 0.65625  L 10.0644618834081 1.07386363636364  C 9.9859865470852 1.15340909090909  9.89630044843049 1.17613636363636  9.79540358744395 1.14204545454546  C 9.6664798206278 1.10795454545454  9.54035874439462 1.09090909090909  9.41704035874439 1.09090909090909  L 2.42152466367713 1.09090909090909  C 2.05156950672646 1.09090909090909  1.73486547085202 1.22443181818182  1.47141255605381 1.49147727272727  C 1.20795964125561 1.75852272727273  1.0762331838565 2.07954545454546  1.0762331838565 2.45454545454546  L 1.0762331838565 9.54545454545455  C 1.0762331838565 9.92045454545455  1.20795964125561 10.2414772727273  1.47141255605381 10.5085227272727  C 1.73486547085202 10.7755681818182  2.05156950672646 10.9090909090909  2.42152466367713 10.9090909090909  L 9.41704035874439 10.9090909090909  C 9.78699551569507 10.9090909090909  10.1036995515695 10.7755681818182  10.3671524663677 10.5085227272727  C 10.6306053811659 10.2414772727273  10.762331838565 9.92045454545455  10.762331838565 9.54545454545455  L 10.762331838565 8.47159090909091  C 10.762331838565 8.39772727272727  10.7875560538117 8.33522727272727  10.8380044843049 8.28409090909091  L 11.3761210762332 7.73863636363636  C 11.460201793722 7.65340909090909  11.5582959641256 7.63352272727273  11.6704035874439 7.67897727272727  Z M 5.38116591928251 7.36363636363636  L 11.0313901345291 1.63636363636364  L 13.4529147982063 4.09090909090909  L 7.80269058295964 9.81818181818182  L 5.38116591928251 9.81818181818182  L 5.38116591928251 7.36363636363636  Z M 15 2.18181818181818  C 15 2.40909090909091  14.9215246636771 2.60227272727273  14.7645739910314 2.76136363636364  L 13.9910313901345 3.54545454545455  L 11.5695067264574 1.09090909090909  L 12.3430493273543 0.306818181818181  C 12.5 0.147727272727272  12.6905829596413 0.0681818181818188  12.914798206278 0.0681818181818188  C 13.1390134529148 0.0681818181818188  13.3295964125561 0.147727272727272  13.4865470852018 0.306818181818181  L 14.7645739910314 1.60227272727273  C 14.9215246636771 1.76136363636363  15 1.95454545454545  15 2.18181818181818  Z " fill-rule="nonzero" fill="#ffffff" stroke="none" transform="matrix(1 0 0 1 52 796 )" />
  </g>
</svg>