<?xml version="1.0" encoding="utf-8"?>
<svg version="1.1" xmlns:xlink="http://www.w3.org/1999/xlink" width="15px" height="14px" xmlns="http://www.w3.org/2000/svg">
  <g transform="matrix(1 0 0 1 -52 -746 )">
    <path d="M 6.4140625 8.43498012492902  C 6.8046875 8.03747870528109  7 7.55782699223926  7 6.99602498580352  C 7 6.43422297936778  6.8046875 5.95457126632595  6.4140625 5.55706984667802  C 6.0234375 5.1595684270301  5.55208333333333 4.96081771720613  5 4.96081771720613  C 4.44791666666667 4.96081771720613  3.9765625 5.1595684270301  3.5859375 5.55706984667802  C 3.1953125 5.95457126632595  3 6.43422297936778  3 6.99602498580352  C 3 7.55782699223926  3.1953125 8.03747870528109  3.5859375 8.43498012492902  C 3.9765625 8.83248154457694  4.44791666666667 9.03123225440091  5 9.03123225440091  C 5.55208333333333 9.03123225440091  6.0234375 8.83248154457694  6.4140625 8.43498012492902  Z M 12.70703125 11.785917092561  C 12.90234375 11.5871663827371  13 11.3473405262162  13 11.0664395229983  C 13 10.7908385387091  12.9010416666667 10.5523376869203  12.703125 10.350936967632  C 12.5052083333333 10.1495362483437  12.2708333333333 10.0488358886996  12 10.0488358886996  C 11.7291666666667 10.0488358886996  11.4947916666667 10.1495362483437  11.296875 10.350936967632  C 11.0989583333333 10.5523376869203  11 10.7908385387091  11 11.0664395229983  C 11 11.3473405262162  11.09765625 11.5871663827371  11.29296875 11.785917092561  C 11.48828125 11.984667802385  11.7239583333333 12.084043157297  12 12.084043157297  C 12.2760416666667 12.084043157297  12.51171875 11.984667802385  12.70703125 11.785917092561  Z M 12.70703125 3.64508801817149  C 12.90234375 3.44633730834753  13 3.20651145182661  13 2.92561044860875  C 13 2.65000946431952  12.9010416666667 2.41150861253076  12.703125 2.21010789324248  C 12.5052083333333 2.00870717395419  12.2708333333333 1.90800681431005  12 1.90800681431005  C 11.7291666666667 1.90800681431005  11.4947916666667 2.00870717395419  11.296875 2.21010789324248  C 11.0989583333333 2.41150861253076  11 2.65000946431952  11 2.92561044860875  C 11 3.20651145182661  11.09765625 3.44633730834753  11.29296875 3.64508801817149  C 11.48828125 3.84383872799546  11.7239583333333 3.94321408290744  12 3.94321408290744  C 12.2760416666667 3.94321408290744  12.51171875 3.84383872799546  12.70703125 3.64508801817149  Z M 9.9453125 6.1175468483816  C 9.98177083333333 6.16259700927503  10 6.21427219382926  10 6.27257240204429  L 10 7.74332765474162  C 10 7.79632784402801  9.98177083333333 7.84800302858224  9.9453125 7.89835320840431  C 9.90885416666667 7.94870338822639  9.8671875 7.97652848760174  9.8203125 7.98182850653038  L 8.609375 8.17262918796139  C 8.55208333333333 8.35812985046375  8.46875 8.55953056975203  8.359375 8.77683134582623  C 8.53645833333333 9.03123225440091  8.77083333333333 9.33598334279765  9.0625 9.69108461101647  C 9.09895833333333 9.74408480030286  9.1171875 9.79708498958925  9.1171875 9.85008517887564  C 9.1171875 9.91368540601931  9.09895833333333 9.96403558584138  9.0625 10.0011357183419  C 8.94270833333333 10.160136286201  8.72786458333333 10.3973121332576  8.41796875 10.7126632595116  C 8.10807291666667 11.0280143857657  7.90364583333333 11.1856899488927  7.8046875 11.1856899488927  C 7.74739583333333 11.1856899488927  7.69270833333333 11.1671398826424  7.640625 11.130039750142  L 6.7421875 10.4145371947757  C 6.54947916666667 10.5152375544198  6.34895833333333 10.5973878478137  6.140625 10.6609880749574  C 6.08333333333333 11.2333901192504  6.0234375 11.64414158622  5.9609375 11.893242475866  C 5.92447916666667 12.0204429301533  5.84635416666667 12.084043157297  5.7265625 12.084043157297  L 4.2734375 12.084043157297  C 4.21614583333333 12.084043157297  4.1640625 12.0641680863146  4.1171875 12.0244179443498  C 4.0703125 11.984667802385  4.04427083333333 11.9382926367594  4.0390625 11.885292447473  L 3.859375 10.6689381033504  C 3.68229166666667 10.615937914064  3.48697916666667 10.5337876206701  3.2734375 10.4224872231687  L 2.3515625 11.130039750142  C 2.31510416666667 11.1671398826424  2.26302083333333 11.1856899488927  2.1953125 11.1856899488927  C 2.13802083333333 11.1856899488927  2.08333333333333 11.1644898731781  2.03125 11.122089721749  C 1.28125 10.41718720424  0.90625 9.99318568994889  0.90625 9.85008517887564  C 0.90625 9.80238500851789  0.924479166666667 9.75203482869582  0.9609375 9.69903463940943  C 1.01302083333333 9.62483437440848  1.11979166666667 9.48438387279955  1.28125 9.27768313458262  C 1.44270833333333 9.0709823963657  1.56510416666667 8.90933181904221  1.6484375 8.79273140261215  C 1.52864583333333 8.55953056975203  1.4375 8.34222979367783  1.375 8.14082907438955  L 0.1875 7.95002839295855  C 0.135416666666667 7.94472837402991  0.0911458333333333 7.91955328411887  0.0546875 7.87450312322544  C 0.0182291666666667 7.82945296233201  0 7.77777777777778  0 7.71947756956275  L 0 6.24872231686542  C 0 6.19572212757903  0.0182291666666667 6.1440469430248  0.0546875 6.09369676320273  C 0.0911458333333333 6.04334658338066  0.1328125 6.0155214840053  0.1796875 6.01022146507666  L 1.390625 5.81942078364566  C 1.44791666666667 5.63392012114329  1.53125 5.43251940185501  1.640625 5.21521862578081  C 1.46354166666667 4.96081771720613  1.22916666666667 4.65606662880939  0.9375 4.30096536059057  C 0.901041666666667 4.24266515237554  0.8828125 4.18966496308915  0.8828125 4.1419647927314  C 0.8828125 4.07836456558773  0.901041666666667 4.02536437630134  0.9375 3.98296422487223  C 1.05208333333333 3.82396365701306  1.265625 3.58811281468862  1.578125 3.27541169789892  C 1.890625 2.96271058110922  2.09635416666667 2.80636002271437  2.1953125 2.80636002271437  C 2.25260416666667 2.80636002271437  2.30729166666667 2.8249100889646  2.359375 2.86201022146508  L 3.2578125 3.57751277683135  C 3.43489583333333 3.48211243611584  3.63541666666667 3.39731213325762  3.859375 3.32311186825667  C 3.91666666666667 2.75070982396366  3.9765625 2.34260836645845  4.0390625 2.09880749574106  C 4.07552083333333 1.97160704145372  4.15364583333333 1.90800681431005  4.2734375 1.90800681431005  L 5.7265625 1.90800681431005  C 5.78385416666667 1.90800681431005  5.8359375 1.92788188529245  5.8828125 1.96763202725724  C 5.9296875 2.00738216922203  5.95572916666667 2.05375733484762  5.9609375 2.10675752413401  L 6.140625 3.32311186825667  C 6.31770833333333 3.37611205754306  6.51302083333333 3.45826235093697  6.7265625 3.56956274843839  L 7.6484375 2.86201022146508  C 7.69010416666667 2.8249100889646  7.7421875 2.80636002271437  7.8046875 2.80636002271437  C 7.86197916666667 2.80636002271437  7.91666666666667 2.82756009842892  7.96875 2.86996024985804  C 8.71875 3.57486276736703  9.09375 3.99886428165815  9.09375 4.1419647927314  C 9.09375 4.18966496308915  9.07552083333333 4.24001514291122  9.0390625 4.29301533219762  C 8.9765625 4.37781563505584  8.8671875 4.52091614612909  8.7109375 4.72231686541738  C 8.5546875 4.92371758470566  8.4375 5.08271815256483  8.359375 5.19931856899489  C 8.47916666666667 5.45371947756956  8.56770833333333 5.67102025364376  8.625 5.85122089721749  L 9.8125 6.03407155025554  C 9.86458333333333 6.04467158811281  9.90885416666667 6.07249668748817  9.9453125 6.1175468483816  Z M 13.8359375 10.2634866553095  C 14.6119791666667 10.3429869392391  15 10.425137232633  15 10.5099375354912  L 15 11.6229415105054  C 15 11.7077418133636  14.6119791666667 11.7898921067575  13.8359375 11.8693923906871  C 13.7734375 12.0124929017604  13.6953125 12.150293393905  13.6015625 12.282793867121  C 13.8671875 12.8816960060572  14 13.2473973121333  14 13.3798977853492  C 14 13.4010978610638  13.9895833333333 13.419647927314  13.96875 13.4355479840999  C 13.3333333333333 13.8118493280333  13.0104166666667 14  13 14  C 12.9583333333333 14  12.8385416666667 13.875449555177  12.640625 13.6263486655309  C 12.4427083333333 13.3772477758849  12.3072916666667 13.1970471323112  12.234375 13.0857467348098  C 12.1302083333333 13.096346772667  12.0520833333333 13.1016467915957  12 13.1016467915957  C 11.9479166666667 13.1016467915957  11.8697916666667 13.096346772667  11.765625 13.0857467348098  C 11.6927083333333 13.1970471323112  11.5572916666667 13.3772477758849  11.359375 13.6263486655309  C 11.1614583333333 13.875449555177  11.0416666666667 14  11 14  C 10.9895833333333 14  10.6666666666667 13.8118493280333  10.03125 13.4355479840999  C 10.0104166666667 13.419647927314  10 13.4010978610638  10 13.3798977853492  C 10 13.2473973121333  10.1328125 12.8816960060572  10.3984375 12.282793867121  C 10.3046875 12.150293393905  10.2265625 12.0124929017604  10.1640625 11.8693923906871  C 9.38802083333333 11.7898921067575  9 11.7077418133636  9 11.6229415105054  L 9 10.5099375354912  C 9 10.425137232633  9.38802083333333 10.3429869392391  10.1640625 10.2634866553095  C 10.2317708333333 10.109786106379  10.3098958333333 9.97198561423433  10.3984375 9.85008517887564  C 10.1328125 9.25118303993943  10 8.88548173386334  10 8.75298126064736  C 10 8.7317811849328  10.0104166666667 8.71323111868257  10.03125 8.69733106189665  C 10.0520833333333 8.68673102403937  10.1432291666667 8.63373083475298  10.3046875 8.53833049403748  C 10.4661458333333 8.44293015332198  10.6197916666667 8.35282983153511  10.765625 8.26802952867689  C 10.9114583333333 8.18322922581866  10.9895833333333 8.14082907438955  11 8.14082907438955  C 11.0416666666667 8.14082907438955  11.1614583333333 8.26405451448041  11.359375 8.51050539466212  C 11.5572916666667 8.75695627484384  11.6927083333333 8.93583191368541  11.765625 9.04713231118683  C 11.8697916666667 9.03653227332955  11.9479166666667 9.03123225440091  12 9.03123225440091  C 12.0520833333333 9.03123225440091  12.1302083333333 9.03653227332955  12.234375 9.04713231118683  C 12.5 8.67083096725345  12.7395833333333 8.37402990724967  12.953125 8.15672913117547  L 13 8.14082907438955  C 13.0208333333333 8.14082907438955  13.34375 8.32632973689192  13.96875 8.69733106189665  C 13.9895833333333 8.71323111868257  14 8.7317811849328  14 8.75298126064736  C 14 8.88548173386334  13.8671875 9.25118303993943  13.6015625 9.85008517887564  C 13.6901041666667 9.97198561423433  13.7682291666667 10.109786106379  13.8359375 10.2634866553095  Z M 13.8359375 2.12265758091993  C 14.6119791666667 2.20215786484952  15 2.28430815824342  15 2.36910846110165  L 15 3.48211243611584  C 15 3.56691273897407  14.6119791666667 3.64906303236797  13.8359375 3.72856331629756  C 13.7734375 3.87166382737081  13.6953125 4.00946431951543  13.6015625 4.1419647927314  C 13.8671875 4.74086693166761  14 5.10656823774371  14 5.23906871095968  C 14 5.26026878667424  13.9895833333333 5.27881885292447  13.96875 5.29471890971039  C 13.3333333333333 5.67102025364376  13.0104166666667 5.85917092561045  13 5.85917092561045  C 12.9583333333333 5.85917092561045  12.8385416666667 5.73462048078743  12.640625 5.4855195911414  C 12.4427083333333 5.23641870149536  12.3072916666667 5.05621805792163  12.234375 4.94491766042022  C 12.1302083333333 4.95551769827749  12.0520833333333 4.96081771720613  12 4.96081771720613  C 11.9479166666667 4.96081771720613  11.8697916666667 4.95551769827749  11.765625 4.94491766042022  C 11.6927083333333 5.05621805792163  11.5572916666667 5.23641870149536  11.359375 5.4855195911414  C 11.1614583333333 5.73462048078743  11.0416666666667 5.85917092561045  11 5.85917092561045  C 10.9895833333333 5.85917092561045  10.6666666666667 5.67102025364376  10.03125 5.29471890971039  C 10.0104166666667 5.27881885292447  10 5.26026878667424  10 5.23906871095968  C 10 5.10656823774371  10.1328125 4.74086693166761  10.3984375 4.1419647927314  C 10.3046875 4.00946431951543  10.2265625 3.87166382737081  10.1640625 3.72856331629756  C 9.38802083333333 3.64906303236797  9 3.56691273897407  9 3.48211243611584  L 9 2.36910846110165  C 9 2.28430815824342  9.38802083333333 2.20215786484952  10.1640625 2.12265758091993  C 10.2317708333333 1.9689570319894  10.3098958333333 1.83115653984478  10.3984375 1.70925610448609  C 10.1328125 1.11035396554988  10 0.744652659473782  10 0.612152186257809  C 10 0.590952110543251  10.0104166666667 0.572402044293016  10.03125 0.556501987507099  C 10.0520833333333 0.545901949649819  10.1432291666667 0.49290176036343  10.3046875 0.397501419647928  C 10.4661458333333 0.302101078932425  10.6197916666667 0.212000757145559  10.765625 0.127200454287337  C 10.9114583333333 0.0424001514291112  10.9895833333333 0  11 0  C 11.0416666666667 0  11.1614583333333 0.123225440090857  11.359375 0.369676320272572  C 11.5572916666667 0.616127200454287  11.6927083333333 0.795002839295855  11.765625 0.906303236797275  C 11.8697916666667 0.895703198939995  11.9479166666667 0.890403180011358  12 0.890403180011358  C 12.0520833333333 0.890403180011358  12.1302083333333 0.895703198939995  12.234375 0.906303236797275  C 12.5 0.530001892863901  12.7395833333333 0.233200832860117  12.953125 0.0159000567859171  L 13 0  C 13.0208333333333 0  13.34375 0.185500662502365  13.96875 0.556501987507099  C 13.9895833333333 0.572402044293016  14 0.590952110543251  14 0.612152186257809  C 14 0.744652659473782  13.8671875 1.11035396554988  13.6015625 1.70925610448609  C 13.6901041666667 1.83115653984478  13.7682291666667 1.9689570319894  13.8359375 2.12265758091993  Z " fill-rule="nonzero" fill="#ffffff" stroke="none" transform="matrix(1 0 0 1 52 746 )" />
  </g>
</svg>