<?xml version="1.0" encoding="utf-8"?>
<svg version="1.1" xmlns:xlink="http://www.w3.org/1999/xlink" width="20px" height="19px" xmlns="http://www.w3.org/2000/svg">
  <g transform="matrix(1 0 0 1 -472 -20 )">
    <path d="M 5.33333333333333 6.78571428571428  C 5.33333333333333 7.76822916666667  5.61458333333333 8.67299107142857  6.17708333333333 9.5  C 5.05208333333333 9.53534226190476  4.13194444444444 9.98772321428571  3.41666666666667 10.8571428571429  L 2.02083333333333 10.8571428571429  C 1.45138888888889 10.8571428571429  0.972222222222222 10.7140066964286  0.583333333333333 10.427734375  C 0.194444444444444 10.1414620535714  0 9.72265625  0 9.17131696428572  C 0 6.67615327380952  0.430555555555555 5.42857142857143  1.29166666666667 5.42857142857143  C 1.33333333333333 5.42857142857143  1.484375 5.50279017857143  1.74479166666667 5.65122767857143  C 2.00520833333333 5.79966517857143  2.34375 5.94986979166667  2.76041666666667 6.10184151785714  C 3.17708333333333 6.25381324404762  3.59027777777778 6.32979910714286  4 6.32979910714286  C 4.46527777777778 6.32979910714286  4.92708333333333 6.2485119047619  5.38541666666667 6.0859375  C 5.35069444444444 6.34747023809524  5.33333333333333 6.58072916666667  5.33333333333333 6.78571428571428  Z M 17.296875 15.1565290178571  C 17.3211805555556 15.5134858630952  17.3333333333333 15.8792782738095  17.3333333333333 16.25390625  C 17.3333333333333 17.1021205357143  17.0798611111111 17.7718563988095  16.5729166666667 18.2631138392857  C 16.0659722222222 18.7543712797619  15.3923611111111 19  14.5520833333333 19  L 5.44791666666667 19  C 4.60763888888889 19  3.93402777777778 18.7543712797619  3.42708333333333 18.2631138392857  C 2.92013888888889 17.7718563988095  2.66666666666667 17.1021205357143  2.66666666666667 16.25390625  C 2.66666666666667 15.8792782738095  2.67881944444444 15.5134858630952  2.703125 15.1565290178571  C 2.72743055555556 14.799572172619  2.77604166666667 14.4143415178571  2.84895833333333 14.0008370535714  C 2.921875 13.5873325892857  3.01388888888889 13.203869047619  3.125 12.8504464285714  C 3.23611111111111 12.4970238095238  3.38541666666667 12.1524367559524  3.57291666666667 11.8166852678571  C 3.76041666666667 11.4809337797619  3.97569444444444 11.1946614583333  4.21875 10.9578683035714  C 4.46180555555556 10.7210751488095  4.75868055555556 10.531994047619  5.109375 10.390625  C 5.46006944444445 10.249255952381  5.84722222222222 10.1785714285714  6.27083333333333 10.1785714285714  C 6.34027777777778 10.1785714285714  6.48958333333333 10.2545572916667  6.71875 10.4065290178571  C 6.94791666666667 10.5585007440476  7.20138888888889 10.7281436011905  7.47916666666667 10.9154575892857  C 7.75694444444445 11.102771577381  8.12847222222222 11.2724144345238  8.59375 11.4243861607143  C 9.05902777777778 11.5763578869048  9.52777777777778 11.65234375  10 11.65234375  C 10.4722222222222 11.65234375  10.9409722222222 11.5763578869048  11.40625 11.4243861607143  C 11.8715277777778 11.2724144345238  12.2430555555556 11.102771577381  12.5208333333333 10.9154575892857  C 12.7986111111111 10.7281436011905  13.0520833333333 10.5585007440476  13.28125 10.4065290178571  C 13.5104166666667 10.2545572916667  13.6597222222222 10.1785714285714  13.7291666666667 10.1785714285714  C 14.1527777777778 10.1785714285714  14.5399305555556 10.249255952381  14.890625 10.390625  C 15.2413194444444 10.531994047619  15.5381944444444 10.7210751488095  15.78125 10.9578683035714  C 16.0243055555556 11.1946614583333  16.2395833333333 11.4809337797619  16.4270833333333 11.8166852678571  C 16.6145833333333 12.1524367559524  16.7638888888889 12.4970238095238  16.875 12.8504464285714  C 16.9861111111111 13.203869047619  17.078125 13.5873325892857  17.1510416666667 14.0008370535714  C 17.2239583333333 14.4143415178571  17.2725694444444 14.799572172619  17.296875 15.1565290178571  Z M 5.88541666666667 0.795200892857143  C 6.40625 1.32533482142857  6.66666666666667 1.96502976190476  6.66666666666667 2.71428571428572  C 6.66666666666667 3.46354166666667  6.40625 4.10323660714286  5.88541666666667 4.63337053571428  C 5.36458333333333 5.16350446428572  4.73611111111111 5.42857142857143  4 5.42857142857143  C 3.26388888888889 5.42857142857143  2.63541666666667 5.16350446428572  2.11458333333333 4.63337053571428  C 1.59375 4.10323660714286  1.33333333333333 3.46354166666667  1.33333333333333 2.71428571428572  C 1.33333333333333 1.96502976190476  1.59375 1.32533482142857  2.11458333333333 0.795200892857143  C 2.63541666666667 0.265066964285715  3.26388888888889 0  4 0  C 4.73611111111111 0  5.36458333333333 0.265066964285715  5.88541666666667 0.795200892857143  Z M 12.828125 3.90708705357143  C 13.609375 4.70228794642857  14 5.66183035714286  14 6.78571428571428  C 14 7.90959821428572  13.609375 8.869140625  12.828125 9.66434151785714  C 12.046875 10.4595424107143  11.1041666666667 10.8571428571429  10 10.8571428571429  C 8.89583333333334 10.8571428571429  7.953125 10.4595424107143  7.171875 9.66434151785714  C 6.390625 8.869140625  6 7.90959821428572  6 6.78571428571428  C 6 5.66183035714286  6.390625 4.70228794642857  7.171875 3.90708705357143  C 7.953125 3.11188616071428  8.89583333333334 2.71428571428572  10 2.71428571428572  C 11.1041666666667 2.71428571428572  12.046875 3.11188616071428  12.828125 3.90708705357143  Z M 18.7083333333333 5.42857142857143  C 19.5694444444445 5.42857142857143  20 6.67615327380952  20 9.17131696428572  C 20 9.72265625  19.8055555555556 10.1414620535714  19.4166666666667 10.427734375  C 19.0277777777778 10.7140066964286  18.5486111111111 10.8571428571429  17.9791666666667 10.8571428571429  L 16.5833333333333 10.8571428571429  C 15.8680555555556 9.98772321428571  14.9479166666667 9.53534226190476  13.8229166666667 9.5  C 14.3854166666667 8.67299107142857  14.6666666666667 7.76822916666667  14.6666666666667 6.78571428571428  C 14.6666666666667 6.58072916666667  14.6493055555556 6.34747023809524  14.6145833333333 6.0859375  C 15.0729166666667 6.2485119047619  15.5347222222222 6.32979910714286  16 6.32979910714286  C 16.4097222222222 6.32979910714286  16.8229166666667 6.25381324404762  17.2395833333333 6.10184151785714  C 17.65625 5.94986979166667  17.9947916666667 5.79966517857143  18.2552083333333 5.65122767857143  C 18.515625 5.50279017857143  18.6666666666667 5.42857142857143  18.7083333333333 5.42857142857143  Z M 17.8854166666667 0.795200892857143  C 18.40625 1.32533482142857  18.6666666666667 1.96502976190476  18.6666666666667 2.71428571428572  C 18.6666666666667 3.46354166666667  18.40625 4.10323660714286  17.8854166666667 4.63337053571428  C 17.3645833333333 5.16350446428572  16.7361111111111 5.42857142857143  16 5.42857142857143  C 15.2638888888889 5.42857142857143  14.6354166666667 5.16350446428572  14.1145833333333 4.63337053571428  C 13.59375 4.10323660714286  13.3333333333333 3.46354166666667  13.3333333333333 2.71428571428572  C 13.3333333333333 1.96502976190476  13.59375 1.32533482142857  14.1145833333333 0.795200892857143  C 14.6354166666667 0.265066964285715  15.2638888888889 0  16 0  C 16.7361111111111 0  17.3645833333333 0.265066964285715  17.8854166666667 0.795200892857143  Z " fill-rule="nonzero" fill="#0066ff" stroke="none" transform="matrix(1 0 0 1 472 20 )" />
  </g>
</svg>