<?xml version="1.0" encoding="utf-8"?>
<svg version="1.1" xmlns:xlink="http://www.w3.org/1999/xlink" width="30px" height="28px" xmlns="http://www.w3.org/2000/svg">
  <g transform="matrix(1 0 0 1 -453 -223 )">
    <path d="M 13.9910313901345 21  L 14.932735426009 21  L 16.8834080717489 18.6931818181818  L 14.3273542600897 15.6704545454545  L 12.3766816143498 17.9772727272727  L 12.3766816143498 19.0909090909091  L 13.9910313901345 19.0909090909091  L 13.9910313901345 21  Z M 22.3150224215247 7.33806818181818  C 22.5056053811659 7.11268939393939  22.5112107623318 6.89393939393939  22.3318385650224 6.68181818181818  C 22.152466367713 6.46969696969697  21.9674887892377 6.47632575757576  21.7769058295964 6.70170454545455  L 15.8912556053812 13.6619318181818  C 15.7006726457399 13.8873106060606  15.695067264574 14.1060606060606  15.8744394618834 14.3181818181818  C 16.0538116591928 14.530303030303  16.2387892376682 14.5236742424242  16.4293721973094 14.2982954545455  L 22.3150224215247 7.33806818181818  Z M 23.3408071748879 17.9176136363636  C 23.5650224215247 18.0236742424242  23.677130044843 18.2159090909091  23.677130044843 18.4943181818182  L 23.677130044843 22.2727272727273  C 23.677130044843 23.8503787878788  23.2034753363229 25.1993371212121  22.2561659192825 26.3196022727273  C 21.3088565022422 27.4398674242424  20.1681614349776 28  18.8340807174888 28  L 4.84304932735426 28  C 3.50896860986547 28  2.3682735426009 27.4398674242424  1.42096412556054 26.3196022727273  C 0.473654708520179 25.1993371212121  0 23.8503787878788  0 22.2727272727273  L 0 5.72727272727273  C 0 4.14962121212121  0.473654708520179 2.80066287878788  1.42096412556054 1.68039772727273  C 2.3682735426009 0.560132575757573  3.50896860986547 0  4.84304932735426 0  L 18.8340807174888 0  C 19.5403587443946 0  20.1961883408072 0.165719696969695  20.8015695067265 0.49715909090909  C 20.969730941704 0.589962121212119  21.0706278026906 0.742424242424242  21.1042600896861 0.954545454545454  C 21.1378923766816 1.17992424242424  21.0874439461883 1.37215909090909  20.9529147982063 1.53125  L 20.1289237668161 2.50568181818182  C 19.9719730941704 2.69128787878788  19.792600896861 2.74431818181818  19.5908071748879 2.66477272727273  C 19.3329596412556 2.58522727272727  19.0807174887892 2.54545454545455  18.8340807174888 3  L 4.84304932735426 3  C 4.10313901345291 2.54545454545455  3.46973094170404 2.85700757575757  2.94282511210762 3.48011363636364  C 2.41591928251121 4.1032196969697  2.152466367713 4.85227272727273  2.152466367713 5.72727272727273  L 2.152466367713 22.2727272727273  C 2.152466367713 23.1477272727273  2.41591928251121 23.8967803030303  2.94282511210762 24.5198863636364  C 3.46973094170404 25.1429924242424  4.10313901345291 25.4545454545455  4.84304932735426 25  L 18.8340807174888 25  C 19.5739910313901 25.4545454545455  20.207399103139 25.1429924242424  20.7343049327354 24.5198863636364  C 21.2612107623318 23.8967803030303  21.52466367713 23.1477272727273  21.52466367713 22.2727272727273  L 21.52466367713 19.7670454545455  C 21.52466367713 19.594696969697  21.5751121076233 19.4488636363636  21.6760089686099 19.3295454545455  L 22.7522421524664 18.0568181818182  C 22.9204035874439 17.8579545454545  23.1165919282511 17.811553030303  23.3408071748879 17.9176136363636  Z M 10.762331838565 17.1818181818182  L 22.0627802690583 3.81818181818182  L 26.9058295964126 9.54545454545455  L 15.6053811659193 22.9090909090909  L 10.762331838565 22.9090909090909  L 10.762331838565 17.1818181818182  Z M 30 5.09090909090909  C 30 5.62121212121212  29.8430493273543 6.0719696969697  29.5291479820628 6.44318181818182  L 27.9820627802691 8.27272727272727  L 23.1390134529148 2.54545454545455  L 24.6860986547085 0.71590909090909  C 25 0.344696969696967  25.3811659192825 0.159090909090911  25.8295964125561 0.159090909090911  C 26.2780269058296 0.159090909090911  26.6591928251121 0.344696969696967  26.9730941704036 0.71590909090909  L 29.5291479820628 3.73863636363636  C 29.8430493273543 4.10984848484848  30 4.56060606060606  30 5.09090909090909  Z " fill-rule="nonzero" fill="#000000" stroke="none" transform="matrix(1 0 0 1 453 223 )" />
  </g>
</svg>