<?xml version="1.0" encoding="utf-8"?>
<svg version="1.1" xmlns:xlink="http://www.w3.org/1999/xlink" width="18px" height="16px" xmlns="http://www.w3.org/2000/svg">
  <defs>
    <mask fill="white" id="clip7">
      <path d="M 4.9921875 0.0357142857142865  C 5.0390625 0.0119047619047628  5.08928571428572 0  5.14285714285714 0  C 5.22991071428572 0  5.30524553571429 0.0282738095238102  5.36886160714286 0.0848214285714288  C 5.43247767857143 0.141369047619047  5.46428571428571 0.208333333333332  5.46428571428571 0.285714285714286  L 5.46428571428571 13.4285714285714  C 5.46428571428571 13.547619047619  5.40736607142857 13.6309523809524  5.29352678571429 13.6785714285714  L 0.472098214285714 15.9642857142857  C 0.425223214285714 15.9880952380952  0.375 16  0.321428571428571 16  C 0.234375 16  0.159040178571429 15.9717261904762  0.0954241071428572 15.9151785714286  C 0.0318080357142857 15.858630952381  0 15.7916666666667  0 15.7142857142857  L 0 2.57142857142857  C 0 2.45238095238095  0.0569196428571428 2.36904761904762  0.170758928571429 2.32142857142857  L 4.9921875 0.0357142857142865  Z M 17.5279017857143 0.0357142857142865  C 17.5747767857143 0.0119047619047628  17.625 0  17.6785714285714 0  C 17.765625 0  17.8409598214286 0.0282738095238102  17.9045758928571 0.0848214285714288  C 17.9681919642857 0.141369047619047  18 0.208333333333332  18 0.285714285714286  L 18 13.4285714285714  C 18 13.547619047619  17.9430803571429 13.6309523809524  17.8292410714286 13.6785714285714  L 13.0078125 15.9642857142857  C 12.9609375 15.9880952380952  12.9107142857143 16  12.8571428571429 16  C 12.7700892857143 16  12.6947544642857 15.9717261904762  12.6311383928571 15.9151785714286  C 12.5675223214286 15.858630952381  12.5357142857143 15.7916666666667  12.5357142857143 15.7142857142857  L 12.5357142857143 2.57142857142857  C 12.5357142857143 2.45238095238095  12.5926339285714 2.36904761904762  12.7064732142857 2.32142857142857  L 17.5279017857143 0.0357142857142865  Z M 6.20256696428571 0.0848214285714288  C 6.26618303571429 0.0282738095238102  6.34151785714286 0  6.42857142857143 0  C 6.48214285714286 0  6.52901785714286 0.00892857142857117  6.56919642857143 0.0267857142857135  L 11.7120535714286 2.3125  C 11.8325892857143 2.37202380952381  11.8928571428571 2.45833333333333  11.8928571428571 2.57142857142857  L 11.8928571428571 15.7142857142857  C 11.8928571428571 15.7916666666667  11.8610491071429 15.858630952381  11.7974330357143 15.9151785714286  C 11.7338169642857 15.9717261904762  11.6584821428571 16  11.5714285714286 16  C 11.5178571428571 16  11.4709821428571 15.9910714285714  11.4308035714286 15.9732142857143  L 6.28794642857143 13.6875  C 6.16741071428571 13.6279761904762  6.10714285714286 13.5416666666667  6.10714285714286 13.4285714285714  L 6.10714285714286 0.285714285714286  C 6.10714285714286 0.208333333333332  6.13895089285714 0.141369047619047  6.20256696428571 0.0848214285714288  Z " fill-rule="evenodd" />
    </mask>
  </defs>
  <g transform="matrix(1 0 0 1 -699 -367 )">
    <path d="M 4.9921875 0.0357142857142865  C 5.0390625 0.0119047619047628  5.08928571428572 0  5.14285714285714 0  C 5.22991071428572 0  5.30524553571429 0.0282738095238102  5.36886160714286 0.0848214285714288  C 5.43247767857143 0.141369047619047  5.46428571428571 0.208333333333332  5.46428571428571 0.285714285714286  L 5.46428571428571 13.4285714285714  C 5.46428571428571 13.547619047619  5.40736607142857 13.6309523809524  5.29352678571429 13.6785714285714  L 0.472098214285714 15.9642857142857  C 0.425223214285714 15.9880952380952  0.375 16  0.321428571428571 16  C 0.234375 16  0.159040178571429 15.9717261904762  0.0954241071428572 15.9151785714286  C 0.0318080357142857 15.858630952381  0 15.7916666666667  0 15.7142857142857  L 0 2.57142857142857  C 0 2.45238095238095  0.0569196428571428 2.36904761904762  0.170758928571429 2.32142857142857  L 4.9921875 0.0357142857142865  Z M 17.5279017857143 0.0357142857142865  C 17.5747767857143 0.0119047619047628  17.625 0  17.6785714285714 0  C 17.765625 0  17.8409598214286 0.0282738095238102  17.9045758928571 0.0848214285714288  C 17.9681919642857 0.141369047619047  18 0.208333333333332  18 0.285714285714286  L 18 13.4285714285714  C 18 13.547619047619  17.9430803571429 13.6309523809524  17.8292410714286 13.6785714285714  L 13.0078125 15.9642857142857  C 12.9609375 15.9880952380952  12.9107142857143 16  12.8571428571429 16  C 12.7700892857143 16  12.6947544642857 15.9717261904762  12.6311383928571 15.9151785714286  C 12.5675223214286 15.858630952381  12.5357142857143 15.7916666666667  12.5357142857143 15.7142857142857  L 12.5357142857143 2.57142857142857  C 12.5357142857143 2.45238095238095  12.5926339285714 2.36904761904762  12.7064732142857 2.32142857142857  L 17.5279017857143 0.0357142857142865  Z M 6.20256696428571 0.0848214285714288  C 6.26618303571429 0.0282738095238102  6.34151785714286 0  6.42857142857143 0  C 6.48214285714286 0  6.52901785714286 0.00892857142857117  6.56919642857143 0.0267857142857135  L 11.7120535714286 2.3125  C 11.8325892857143 2.37202380952381  11.8928571428571 2.45833333333333  11.8928571428571 2.57142857142857  L 11.8928571428571 15.7142857142857  C 11.8928571428571 15.7916666666667  11.8610491071429 15.858630952381  11.7974330357143 15.9151785714286  C 11.7338169642857 15.9717261904762  11.6584821428571 16  11.5714285714286 16  C 11.5178571428571 16  11.4709821428571 15.9910714285714  11.4308035714286 15.9732142857143  L 6.28794642857143 13.6875  C 6.16741071428571 13.6279761904762  6.10714285714286 13.5416666666667  6.10714285714286 13.4285714285714  L 6.10714285714286 0.285714285714286  C 6.10714285714286 0.208333333333332  6.13895089285714 0.141369047619047  6.20256696428571 0.0848214285714288  Z " fill-rule="nonzero" fill="#000000" stroke="none" transform="matrix(1 0 0 1 699 367 )" />
    <path d="M 4.9921875 0.0357142857142865  C 5.0390625 0.0119047619047628  5.08928571428572 0  5.14285714285714 0  C 5.22991071428572 0  5.30524553571429 0.0282738095238102  5.36886160714286 0.0848214285714288  C 5.43247767857143 0.141369047619047  5.46428571428571 0.208333333333332  5.46428571428571 0.285714285714286  L 5.46428571428571 13.4285714285714  C 5.46428571428571 13.547619047619  5.40736607142857 13.6309523809524  5.29352678571429 13.6785714285714  L 0.472098214285714 15.9642857142857  C 0.425223214285714 15.9880952380952  0.375 16  0.321428571428571 16  C 0.234375 16  0.159040178571429 15.9717261904762  0.0954241071428572 15.9151785714286  C 0.0318080357142857 15.858630952381  0 15.7916666666667  0 15.7142857142857  L 0 2.57142857142857  C 0 2.45238095238095  0.0569196428571428 2.36904761904762  0.170758928571429 2.32142857142857  L 4.9921875 0.0357142857142865  Z " stroke-width="2" stroke="#02a7f0" fill="none" transform="matrix(1 0 0 1 699 367 )" mask="url(#clip7)" />
    <path d="M 17.5279017857143 0.0357142857142865  C 17.5747767857143 0.0119047619047628  17.625 0  17.6785714285714 0  C 17.765625 0  17.8409598214286 0.0282738095238102  17.9045758928571 0.0848214285714288  C 17.9681919642857 0.141369047619047  18 0.208333333333332  18 0.285714285714286  L 18 13.4285714285714  C 18 13.547619047619  17.9430803571429 13.6309523809524  17.8292410714286 13.6785714285714  L 13.0078125 15.9642857142857  C 12.9609375 15.9880952380952  12.9107142857143 16  12.8571428571429 16  C 12.7700892857143 16  12.6947544642857 15.9717261904762  12.6311383928571 15.9151785714286  C 12.5675223214286 15.858630952381  12.5357142857143 15.7916666666667  12.5357142857143 15.7142857142857  L 12.5357142857143 2.57142857142857  C 12.5357142857143 2.45238095238095  12.5926339285714 2.36904761904762  12.7064732142857 2.32142857142857  L 17.5279017857143 0.0357142857142865  Z " stroke-width="2" stroke="#02a7f0" fill="none" transform="matrix(1 0 0 1 699 367 )" mask="url(#clip7)" />
    <path d="M 6.20256696428571 0.0848214285714288  C 6.26618303571429 0.0282738095238102  6.34151785714286 0  6.42857142857143 0  C 6.48214285714286 0  6.52901785714286 0.00892857142857117  6.56919642857143 0.0267857142857135  L 11.7120535714286 2.3125  C 11.8325892857143 2.37202380952381  11.8928571428571 2.45833333333333  11.8928571428571 2.57142857142857  L 11.8928571428571 15.7142857142857  C 11.8928571428571 15.7916666666667  11.8610491071429 15.858630952381  11.7974330357143 15.9151785714286  C 11.7338169642857 15.9717261904762  11.6584821428571 16  11.5714285714286 16  C 11.5178571428571 16  11.4709821428571 15.9910714285714  11.4308035714286 15.9732142857143  L 6.28794642857143 13.6875  C 6.16741071428571 13.6279761904762  6.10714285714286 13.5416666666667  6.10714285714286 13.4285714285714  L 6.10714285714286 0.285714285714286  C 6.10714285714286 0.208333333333332  6.13895089285714 0.141369047619047  6.20256696428571 0.0848214285714288  Z " stroke-width="2" stroke="#02a7f0" fill="none" transform="matrix(1 0 0 1 699 367 )" mask="url(#clip7)" />
  </g>
</svg>