<?xml version="1.0" encoding="utf-8"?>
<svg version="1.1" xmlns:xlink="http://www.w3.org/1999/xlink" width="25px" height="25px" xmlns="http://www.w3.org/2000/svg">
  <g transform="matrix(1 0 0 1 -317 -636 )">
    <path d="M 24.2606026785714 11.296875  C 24.7535342261905 12.6927083333333  25 14.4270833333333  25 16.5  C 25 18.2291666666667  24.409412202381 20.578125  23.2282366071429 23.546875  C 23.2003348214286 23.6197916666667  23.1515066964286 23.7447916666667  23.0817522321429 23.921875  C 23.0119977678571 24.0989583333333  22.94921875 24.2552083333333  22.8934151785714 24.390625  C 22.8376116071429 24.5260416666667  22.7771577380952 24.640625  22.7120535714286 24.734375  C 22.6004464285714 24.9114583333333  22.4702380952381 25  22.3214285714286 25  C 22.1819196428571 25  22.0726376488095 24.9479166666667  21.9935825892857 24.84375  C 21.9145275297619 24.7395833333333  21.875 24.609375  21.875 24.453125  C 21.875 24.359375  21.8866257440476 24.2213541666667  21.9098772321429 24.0390625  C 21.9331287202381 23.8567708333333  21.9447544642857 23.734375  21.9447544642857 23.671875  C 21.9912574404762 22.9635416666667  22.0145089285714 22.3229166666667  22.0145089285714 21.75  C 22.0145089285714 20.6979166666667  21.9331287202381 19.7552083333333  21.7703683035714 18.921875  C 21.6076078869048 18.0885416666667  21.382068452381 17.3671875  21.09375 16.7578125  C 20.8054315476191 16.1484375  20.4334077380952 15.6223958333333  19.9776785714286 15.1796875  C 19.5219494047619 14.7369791666667  19.0313430059524 14.375  18.505859375 14.09375  C 17.9803757440476 13.8125  17.3618861607143 13.5911458333333  16.650390625 13.4296875  C 15.9388950892857 13.2682291666667  15.2227492559524 13.15625  14.501953125 13.09375  C 13.7811569940476 13.03125  12.9650297619048 13  12.0535714285714 13  L 8.92857142857143 13  L 8.92857142857143 17  C 8.92857142857143 17.2708333333333  8.84021577380953 17.5052083333333  8.66350446428571 17.703125  C 8.48679315476191 17.9010416666667  8.27752976190476 18  8.03571428571429 18  C 7.79389880952381 18  7.58463541666667 17.9010416666667  7.40792410714286 17.703125  L 0.265066964285714 9.703125  C 0.0883556547619048 9.50520833333333  0 9.27083333333333  0 9  C 0 8.72916666666667  0.0883556547619048 8.49479166666666  0.265066964285714 8.296875  L 7.40792410714286 0.296874999999999  C 7.58463541666667 0.0989583333333321  7.79389880952381 0  8.03571428571429 0  C 8.27752976190476 0  8.48679315476191 0.0989583333333321  8.66350446428571 0.296874999999999  C 8.84021577380953 0.494791666666664  8.92857142857143 0.729166666666664  8.92857142857143 1  L 8.92857142857143 5  L 12.0535714285714 5  C 18.6848958333333 5  22.75390625 7.09895833333333  24.2606026785714 11.296875  Z " fill-rule="nonzero" fill="#000000" stroke="none" transform="matrix(1 0 0 1 317 636 )" />
  </g>
</svg>