<?xml version="1.0" encoding="utf-8"?>
<svg version="1.1" xmlns:xlink="http://www.w3.org/1999/xlink" width="19px" height="15px" xmlns="http://www.w3.org/2000/svg">
  <g transform="matrix(1 0 0 1 -337 -408 )">
    <path d="M 8.8609865470852 11.25  L 9.45739910313901 11.25  L 10.6928251121076 10.0142045454545  L 9.07399103139013 8.39488636363636  L 7.83856502242153 9.63068181818182  L 7.83856502242153 10.2272727272727  L 8.8609865470852 10.2272727272727  L 8.8609865470852 11.25  Z M 14.1328475336323 3.93110795454545  C 14.2535500747384 3.81036931818182  14.2571001494768 3.69318181818182  14.1434977578475 3.57954545454545  C 14.0298953662182 3.46590909090909  13.9127428998505 3.46946022727273  13.7920403587444 3.59019886363636  L 10.0644618834081 7.31889204545455  C 9.94375934230194 7.43963068181818  9.94020926756353 7.55681818181818  10.0538116591928 7.67045454545455  C 10.1674140508221 7.78409090909091  10.2845665171898 7.78053977272727  10.405269058296 7.65980113636364  L 14.1328475336323 3.93110795454545  Z M 14.7825112107623 9.59872159090909  C 14.924514200299 9.65553977272727  14.9955156950673 9.75852272727273  14.9955156950673 9.90767045454546  L 14.9955156950673 11.9318181818182  C 14.9955156950673 12.7769886363636  14.6955343796712 13.4996448863636  14.0955717488789 14.0997869318182  C 13.4956091180867 14.6999289772727  12.7731689088191 15  11.9282511210762 15  L 3.06726457399103 15  C 2.22234678624813 15  1.49990657698057 14.6999289772727  0.899943946188341 14.0997869318182  C 0.299981315396114 13.4996448863636  0 12.7769886363636  0 11.9318181818182  L 0 3.06818181818182  C 0 2.22301136363636  0.299981315396114 1.50035511363636  0.899943946188341 0.900213068181819  C 1.49990657698057 0.300071022727271  2.22234678624813 0  3.06726457399103 0  L 11.9282511210762 0  C 12.3755605381166 0  12.7909192825112 0.0887784090909083  13.1743273542601 0.266335227272727  C 13.2808295964126 0.316051136363635  13.344730941704 0.397727272727272  13.3660313901345 0.511363636363636  C 13.387331838565 0.632102272727272  13.3553811659193 0.735085227272727  13.2701793721973 0.8203125  L 12.7483183856502 1.34232954545455  C 12.6489162929746 1.44176136363636  12.5353139013453 1.47017045454545  12.4075112107623 1.42755681818182  C 12.2442077727952 1.38494318181818  12.0844544095665 1.36363636363636  11.9282511210762 1.36363636363636  L 3.06726457399103 1.36363636363636  C 2.59865470852018 1.36363636363636  2.19749626307922 1.53053977272727  1.86378923766816 1.86434659090909  C 1.5300822122571 2.19815340909091  1.36322869955157 2.59943181818182  1.36322869955157 3.06818181818182  L 1.36322869955157 11.9318181818182  C 1.36322869955157 12.4005681818182  1.5300822122571 12.8018465909091  1.86378923766816 13.1356534090909  C 2.19749626307922 13.4694602272727  2.59865470852018 13.6363636363636  3.06726457399103 13.6363636363636  L 11.9282511210762 13.6363636363636  C 12.3968609865471 13.6363636363636  12.798019431988 13.4694602272727  13.1317264573991 13.1356534090909  C 13.4654334828102 12.8018465909091  13.6322869955157 12.4005681818182  13.6322869955157 11.9318181818182  L 13.6322869955157 10.5894886363636  C 13.6322869955157 10.4971590909091  13.6642376681614 10.4190340909091  13.7281390134529 10.3551136363636  L 14.4097533632287 9.67329545454546  C 14.5162556053812 9.56676136363636  14.6405082212257 9.54190340909091  14.7825112107623 9.59872159090909  Z M 6.81614349775785 9.20454545454546  L 13.9730941704036 2.04545454545455  L 17.0403587443946 5.11363636363636  L 9.88340807174888 12.2727272727273  L 6.81614349775785 12.2727272727273  L 6.81614349775785 9.20454545454546  Z M 19 2.72727272727273  C 19 3.01136363636364  18.9005979073244 3.25284090909091  18.7017937219731 3.45170454545455  L 17.7219730941704 4.43181818181818  L 14.6547085201794 1.36363636363636  L 15.6345291479821 0.383522727272727  C 15.8333333333333 0.184659090909089  16.0747384155456 0.0852272727272735  16.3587443946188 0.0852272727272735  C 16.6427503736921 0.0852272727272735  16.8841554559043 0.184659090909089  17.0829596412556 0.383522727272727  L 18.7017937219731 2.00284090909091  C 18.9005979073244 2.20170454545454  19 2.44318181818182  19 2.72727272727273  Z " fill-rule="nonzero" fill="#000000" stroke="none" transform="matrix(1 0 0 1 337 408 )" />
  </g>
</svg>