<?xml version="1.0" encoding="utf-8"?>
<svg version="1.1" xmlns:xlink="http://www.w3.org/1999/xlink" width="10px" height="14px" xmlns="http://www.w3.org/2000/svg">
  <g transform="matrix(1 0 0 1 -671 -338 )">
    <path d="M 6.767578125 6.31640625  C 7.255859375 5.86067708333333  7.5 5.31076388888889  7.5 4.66666666666667  C 7.5 4.02256944444444  7.255859375 3.47265625  6.767578125 3.01692708333333  C 6.279296875 2.56119791666667  5.69010416666667 2.33333333333333  5 2.33333333333333  C 4.30989583333333 2.33333333333333  3.720703125 2.56119791666667  3.232421875 3.01692708333333  C 2.744140625 3.47265625  2.5 4.02256944444444  2.5 4.66666666666667  C 2.5 5.31076388888889  2.744140625 5.86067708333333  3.232421875 6.31640625  C 3.720703125 6.77213541666667  4.30989583333333 7  5 7  C 5.69010416666667 7  6.279296875 6.77213541666667  6.767578125 6.31640625  Z M 8.53515625 1.3671875  C 9.51171875 2.27864583333333  10 3.37847222222222  10 4.66666666666667  C 10 5.32899305555555  9.892578125 5.87282986111111  9.677734375 6.29817708333333  L 6.123046875 13.3528645833333  C 6.01888020833333 13.5533854166667  5.8642578125 13.7113715277778  5.6591796875 13.8268229166667  C 5.4541015625 13.9422743055556  5.234375 14  5 14  C 4.765625 14  4.5458984375 13.9422743055556  4.3408203125 13.8268229166667  C 4.1357421875 13.7113715277778  3.984375 13.5533854166667  3.88671875 13.3528645833333  L 0.322265625 6.29817708333333  C 0.107421875 5.87282986111111  0 5.32899305555555  0 4.66666666666667  C 0 3.37847222222222  0.48828125 2.27864583333333  1.46484375 1.3671875  C 2.44140625 0.455729166666667  3.61979166666667 0  5 0  C 6.38020833333333 0  7.55859375 0.455729166666667  8.53515625 1.3671875  Z " fill-rule="nonzero" fill="#000000" stroke="none" transform="matrix(1 0 0 1 671 338 )" />
  </g>
</svg>