<?xml version="1.0" encoding="utf-8"?>
<svg version="1.1" xmlns:xlink="http://www.w3.org/1999/xlink" width="16px" height="15px" xmlns="http://www.w3.org/2000/svg">
  <g transform="matrix(1 0 0 1 -476 -408 )">
    <path d="M 9.23958333333333 3.837890625  C 9.30208333333333 3.896484375  9.33333333333333 3.97135416666666  9.33333333333333 4.0625  L 9.33333333333333 8.4375  C 9.33333333333333 8.52864583333333  9.30208333333333 8.603515625  9.23958333333333 8.662109375  C 9.17708333333333 8.720703125  9.09722222222222 8.75  9 8.75  L 5.66666666666667 8.75  C 5.56944444444445 8.75  5.48958333333333 8.720703125  5.42708333333333 8.662109375  C 5.36458333333333 8.603515625  5.33333333333333 8.52864583333333  5.33333333333333 8.4375  L 5.33333333333333 7.8125  C 5.33333333333333 7.72135416666667  5.36458333333333 7.646484375  5.42708333333333 7.587890625  C 5.48958333333333 7.529296875  5.56944444444445 7.5  5.66666666666667 7.5  L 8 7.5  L 8 4.0625  C 8 3.97135416666666  8.03125 3.896484375  8.09375 3.837890625  C 8.15625 3.779296875  8.23611111111111 3.75  8.33333333333333 3.75  L 9 3.75  C 9.09722222222222 3.75  9.17708333333333 3.779296875  9.23958333333333 3.837890625  Z M 12.90625 10.166015625  C 13.4131944444444 9.35221354166666  13.6666666666667 8.46354166666667  13.6666666666667 7.5  C 13.6666666666667 6.53645833333333  13.4131944444444 5.64778645833333  12.90625 4.833984375  C 12.3993055555556 4.02018229166667  11.7118055555556 3.37565104166667  10.84375 2.900390625  C 9.97569444444444 2.42513020833333  9.02777777777778 2.1875  8 2.1875  C 6.97222222222222 2.1875  6.02430555555556 2.42513020833333  5.15625 2.900390625  C 4.28819444444444 3.37565104166667  3.60069444444444 4.02018229166667  3.09375 4.833984375  C 2.58680555555556 5.64778645833333  2.33333333333333 6.53645833333333  2.33333333333333 7.5  C 2.33333333333333 8.46354166666667  2.58680555555556 9.35221354166666  3.09375 10.166015625  C 3.60069444444444 10.9798177083333  4.28819444444444 11.6243489583333  5.15625 12.099609375  C 6.02430555555556 12.5748697916667  6.97222222222222 12.8125  8 12.8125  C 9.02777777777778 12.8125  9.97569444444444 12.5748697916667  10.84375 12.099609375  C 11.7118055555556 11.6243489583333  12.3993055555556 10.9798177083333  12.90625 10.166015625  Z M 14.9270833333333 3.7353515625  C 15.6423611111111 4.88444010416667  16 6.13932291666666  16 7.5  C 16 8.86067708333333  15.6423611111111 10.1155598958333  14.9270833333333 11.2646484375  C 14.2118055555556 12.4137369791667  13.2413194444444 13.3235677083333  12.015625 13.994140625  C 10.7899305555556 14.6647135416667  9.45138888888889 15  8 15  C 6.54861111111111 15  5.21006944444444 14.6647135416667  3.984375 13.994140625  C 2.75868055555556 13.3235677083333  1.78819444444444 12.4137369791667  1.07291666666667 11.2646484375  C 0.357638888888889 10.1155598958333  0 8.86067708333333  0 7.5  C 0 6.13932291666666  0.357638888888889 4.88444010416667  1.07291666666667 3.7353515625  C 1.78819444444444 2.58626302083333  2.75868055555556 1.67643229166667  3.984375 1.005859375  C 5.21006944444444 0.335286458333332  6.54861111111111 0  8 0  C 9.45138888888889 0  10.7899305555556 0.335286458333332  12.015625 1.005859375  C 13.2413194444444 1.67643229166667  14.2118055555556 2.58626302083333  14.9270833333333 3.7353515625  Z " fill-rule="nonzero" fill="#000000" stroke="none" transform="matrix(1 0 0 1 476 408 )" />
  </g>
</svg>