<?xml version="1.0" encoding="utf-8"?>
<svg version="1.1" xmlns:xlink="http://www.w3.org/1999/xlink" width="16px" height="16px" xmlns="http://www.w3.org/2000/svg">
  <g transform="matrix(1 0 0 1 -515 -259 )">
    <path d="M 12.9886363636364 7.375  C 13.0568181818182 7.44318181818182  13.0909090909091 7.53030303030303  13.0909090909091 7.63636363636364  L 13.0909090909091 8.36363636363636  C 13.0909090909091 8.46969696969697  13.0568181818182 8.55681818181818  12.9886363636364 8.625  C 12.9204545454545 8.69318181818182  12.8333333333333 8.72727272727273  12.7272727272727 8.72727272727273  L 8.72727272727273 8.72727272727273  L 8.72727272727273 12.7272727272727  C 8.72727272727273 12.8333333333333  8.69318181818182 12.9204545454545  8.625 12.9886363636364  C 8.55681818181818 13.0568181818182  8.46969696969697 13.0909090909091  8.36363636363636 13.0909090909091  L 7.63636363636364 13.0909090909091  C 7.53030303030303 13.0909090909091  7.44318181818182 13.0568181818182  7.375 12.9886363636364  C 7.30681818181818 12.9204545454545  7.27272727272727 12.8333333333333  7.27272727272727 12.7272727272727  L 7.27272727272727 8.72727272727273  L 3.27272727272727 8.72727272727273  C 3.16666666666667 8.72727272727273  3.07954545454545 8.69318181818182  3.01136363636364 8.625  C 2.94318181818182 8.55681818181818  2.90909090909091 8.46969696969697  2.90909090909091 8.36363636363636  L 2.90909090909091 7.63636363636364  C 2.90909090909091 7.53030303030303  2.94318181818182 7.44318181818182  3.01136363636364 7.375  C 3.07954545454545 7.30681818181818  3.16666666666667 7.27272727272727  3.27272727272727 7.27272727272727  L 7.27272727272727 7.27272727272727  L 7.27272727272727 3.27272727272727  C 7.27272727272727 3.16666666666666  7.30681818181818 3.07954545454546  7.375 3.01136363636364  C 7.44318181818182 2.94318181818182  7.53030303030303 2.90909090909091  7.63636363636364 2.90909090909091  L 8.36363636363636 2.90909090909091  C 8.46969696969697 2.90909090909091  8.55681818181818 2.94318181818182  8.625 3.01136363636364  C 8.69318181818182 3.07954545454546  8.72727272727273 3.16666666666666  8.72727272727273 3.27272727272727  L 8.72727272727273 7.27272727272727  L 12.7272727272727 7.27272727272727  C 12.8333333333333 7.27272727272727  12.9204545454545 7.30681818181818  12.9886363636364 7.375  Z M 14.0113636363636 14.0113636363636  C 14.3674242424242 13.655303030303  14.5454545454545 13.2272727272727  14.5454545454545 12.7272727272727  L 14.5454545454545 3.27272727272727  C 14.5454545454545 2.77272727272727  14.3674242424242 2.34469696969697  14.0113636363636 1.98863636363636  C 13.655303030303 1.63257575757576  13.2272727272727 1.45454545454546  12.7272727272727 1.45454545454546  L 3.27272727272727 1.45454545454546  C 2.77272727272727 1.45454545454546  2.34469696969697 1.63257575757576  1.98863636363636 1.98863636363636  C 1.63257575757576 2.34469696969697  1.45454545454545 2.77272727272727  1.45454545454545 3.27272727272727  L 1.45454545454545 12.7272727272727  C 1.45454545454545 13.2272727272727  1.63257575757576 13.655303030303  1.98863636363636 14.0113636363636  C 2.34469696969697 14.3674242424242  2.77272727272727 14.5454545454545  3.27272727272727 14.5454545454545  L 12.7272727272727 14.5454545454545  C 13.2272727272727 14.5454545454545  13.655303030303 14.3674242424242  14.0113636363636 14.0113636363636  Z M 15.0397727272727 0.960227272727273  C 15.6799242424242 1.60037878787879  16 2.37121212121212  16 3.27272727272727  L 16 12.7272727272727  C 16 13.6287878787879  15.6799242424242 14.3996212121212  15.0397727272727 15.0397727272727  C 14.3996212121212 15.6799242424242  13.6287878787879 16  12.7272727272727 16  L 3.27272727272727 16  C 2.37121212121212 16  1.60037878787879 15.6799242424242  0.960227272727273 15.0397727272727  C 0.320075757575758 14.3996212121212  0 13.6287878787879  0 12.7272727272727  L 0 3.27272727272727  C 0 2.37121212121212  0.320075757575758 1.60037878787879  0.960227272727273 0.960227272727273  C 1.60037878787879 0.320075757575756  2.37121212121212 0  3.27272727272727 0  L 12.7272727272727 0  C 13.6287878787879 0  14.3996212121212 0.320075757575756  15.0397727272727 0.960227272727273  Z " fill-rule="nonzero" fill="#000000" stroke="none" transform="matrix(1 0 0 1 515 259 )" />
  </g>
</svg>