<?xml version="1.0" encoding="utf-8"?>
<svg version="1.1" xmlns:xlink="http://www.w3.org/1999/xlink" width="12px" height="13px" xmlns="http://www.w3.org/2000/svg">
  <g transform="matrix(1 0 0 1 -499 -308 )">
    <path d="M 504.02482248766 312.991389536563  L 505 309.73999444638  L 505.97517751234 312.991389536563  L 509.263262647833 312.991389536563  L 506.603145894268 315.085134816731  L 507.59394454585 318.388613240247  L 505 316.346951293412  L 502.40605545415 318.388613240247  L 503.396854105732 315.085134816731  L 500.736737352167 312.991389536563  L 504.02482248766 312.991389536563  Z " fill-rule="nonzero" fill="#f59a23" stroke="none" />
    <path d="M 503.652916070261 312.491389536563  L 505 308  L 506.347083929739 312.491389536563  L 510.706339097771 312.491389536563  L 507.179627584016 315.267220926874  L 508.526711513755 319.758610463437  L 505 316.982779073126  L 501.473288486245 319.758610463437  L 502.820372415984 315.267220926874  L 499.293660902229 312.491389536563  L 503.652916070261 312.491389536563  Z M 505 311.47998889276  L 504.396728905058 313.491389536563  L 502.179813802106 313.491389536563  L 503.973335795481 314.903048706588  L 503.338822422055 317.018616017057  L 505 315.711123513699  L 506.661177577945 317.018616017057  L 506.026664204519 314.903048706588  L 507.820186197894 313.491389536563  L 505.603271094942 313.491389536563  L 505 311.47998889276  Z " fill-rule="nonzero" fill="#d7d7d7" stroke="none" />
  </g>
</svg>