<?xml version="1.0" encoding="utf-8"?>
<svg version="1.1" xmlns:xlink="http://www.w3.org/1999/xlink" width="13px" height="15px" xmlns="http://www.w3.org/2000/svg">
  <g transform="matrix(1 0 0 1 -621 -408 )">
    <path d="M 4.64417613636364 5.712890625  C 4.69957386363636 5.771484375  4.72727272727273 5.84635416666667  4.72727272727273 5.9375  L 4.72727272727273 11.5625  C 4.72727272727273 11.6536458333333  4.69957386363636 11.728515625  4.64417613636364 11.787109375  C 4.58877840909091 11.845703125  4.51799242424242 11.875  4.43181818181818 11.875  L 3.84090909090909 11.875  C 3.75473484848485 11.875  3.68394886363636 11.845703125  3.62855113636364 11.787109375  C 3.57315340909091 11.728515625  3.54545454545455 11.6536458333333  3.54545454545455 11.5625  L 3.54545454545455 5.9375  C 3.54545454545455 5.84635416666667  3.57315340909091 5.771484375  3.62855113636364 5.712890625  C 3.68394886363636 5.654296875  3.75473484848485 5.625  3.84090909090909 5.625  L 4.43181818181818 5.625  C 4.51799242424242 5.625  4.58877840909091 5.654296875  4.64417613636364 5.712890625  Z M 7.0078125 5.712890625  C 7.06321022727273 5.771484375  7.09090909090909 5.84635416666667  7.09090909090909 5.9375  L 7.09090909090909 11.5625  C 7.09090909090909 11.6536458333333  7.06321022727273 11.728515625  7.0078125 11.787109375  C 6.95241477272727 11.845703125  6.88162878787879 11.875  6.79545454545455 11.875  L 6.20454545454546 11.875  C 6.11837121212121 11.875  6.04758522727273 11.845703125  5.9921875 11.787109375  C 5.93678977272727 11.728515625  5.90909090909091 11.6536458333333  5.90909090909091 11.5625  L 5.90909090909091 5.9375  C 5.90909090909091 5.84635416666667  5.93678977272727 5.771484375  5.9921875 5.712890625  C 6.04758522727273 5.654296875  6.11837121212121 5.625  6.20454545454546 5.625  L 6.79545454545455 5.625  C 6.88162878787879 5.625  6.95241477272727 5.654296875  7.0078125 5.712890625  Z M 9.37144886363636 5.712890625  C 9.42684659090909 5.771484375  9.45454545454546 5.84635416666667  9.45454545454546 5.9375  L 9.45454545454546 11.5625  C 9.45454545454546 11.6536458333333  9.42684659090909 11.728515625  9.37144886363636 11.787109375  C 9.31605113636364 11.845703125  9.24526515151515 11.875  9.15909090909091 11.875  L 8.56818181818182 11.875  C 8.48200757575758 11.875  8.41122159090909 11.845703125  8.35582386363636 11.787109375  C 8.30042613636364 11.728515625  8.27272727272727 11.6536458333333  8.27272727272727 11.5625  L 8.27272727272727 5.9375  C 8.27272727272727 5.84635416666667  8.30042613636364 5.771484375  8.35582386363636 5.712890625  C 8.41122159090909 5.654296875  8.48200757575758 5.625  8.56818181818182 5.625  L 9.15909090909091 5.625  C 9.24526515151515 5.625  9.31605113636364 5.654296875  9.37144886363636 5.712890625  Z M 10.5717329545455 13.4033203125  C 10.6148200757576 13.2828776041667  10.6363636363636 13.1510416666667  10.6363636363636 13.0078125  L 10.6363636363636 3.75  L 2.36363636363636 3.75  L 2.36363636363636 13.0078125  C 2.36363636363636 13.1510416666667  2.38517992424242 13.2828776041667  2.42826704545455 13.4033203125  C 2.47135416666667 13.5237630208333  2.51598011363636 13.6116536458333  2.56214488636364 13.6669921875  C 2.60830965909091 13.7223307291667  2.640625 13.75  2.65909090909091 13.75  L 10.3409090909091 13.75  C 10.359375 13.75  10.3916903409091 13.7223307291667  10.4378551136364 13.6669921875  C 10.4840198863636 13.6116536458333  10.5286458333333 13.5237630208333  10.5717329545455 13.4033203125  Z M 4.88423295454546 1.357421875  L 4.43181818181818 2.5  L 8.56818181818182 2.5  L 8.125 1.357421875  C 8.08191287878788 1.298828125  8.0295928030303 1.26302083333333  7.96803977272727 1.25  L 5.04119318181818 1.25  C 4.97964015151515 1.26302083333333  4.92732007575758 1.298828125  4.88423295454546 1.357421875  Z M 12.9169034090909 2.587890625  C 12.9723011363636 2.646484375  13 2.72135416666667  13 2.8125  L 13 3.4375  C 13 3.52864583333333  12.9723011363636 3.603515625  12.9169034090909 3.662109375  C 12.8615056818182 3.720703125  12.7907196969697 3.75  12.7045454545455 3.75  L 11.8181818181818 3.75  L 11.8181818181818 13.0078125  C 11.8181818181818 13.5481770833333  11.6735321969697 14.0152994791667  11.3842329545455 14.4091796875  C 11.0949337121212 14.8030598958333  10.7471590909091 15  10.3409090909091 15  L 2.65909090909091 15  C 2.25284090909091 15  1.90506628787879 14.8095703125  1.61576704545455 14.4287109375  C 1.3264678030303 14.0478515625  1.18181818181818 13.5872395833333  1.18181818181818 13.046875  L 1.18181818181818 3.75  L 0.295454545454545 3.75  C 0.209280303030303 3.75  0.138494318181818 3.720703125  0.0830965909090909 3.662109375  C 0.0276988636363636 3.603515625  0 3.52864583333333  0 3.4375  L 0 2.8125  C 0 2.72135416666667  0.0276988636363636 2.646484375  0.0830965909090909 2.587890625  C 0.138494318181818 2.529296875  0.209280303030303 2.5  0.295454545454545 2.5  L 3.1484375 2.5  L 3.79474431818182 0.869140625000001  C 3.88707386363636 0.628255208333332  4.05326704545455 0.423177083333332  4.29332386363636 0.253906250000001  C 4.53338068181818 0.0846354166666657  4.77651515151515 0  5.02272727272727 0  L 7.97727272727273 0  C 8.22348484848485 0  8.46661931818182 0.0846354166666657  8.70667613636364 0.253906250000001  C 8.94673295454546 0.423177083333332  9.11292613636364 0.628255208333332  9.20525568181818 0.869140625000001  L 9.8515625 2.5  L 12.7045454545455 2.5  C 12.7907196969697 2.5  12.8615056818182 2.529296875  12.9169034090909 2.587890625  Z " fill-rule="nonzero" fill="#d9001b" stroke="none" transform="matrix(1 0 0 1 621 408 )" />
  </g>
</svg>