<?xml version="1.0" encoding="utf-8"?>
<svg version="1.1" xmlns:xlink="http://www.w3.org/1999/xlink" width="19px" height="14px" xmlns="http://www.w3.org/2000/svg">
  <g transform="matrix(1 0 0 1 -689 -374 )">
    <path d="M 2.61886160714286 11.7486979166667  C 2.68247767857143 11.8033854166667  2.71428571428571 11.8732638888889  2.71428571428571 11.9583333333333  L 2.71428571428571 13.7083333333333  C 2.71428571428571 13.7934027777778  2.68247767857143 13.86328125  2.61886160714286 13.91796875  C 2.55524553571429 13.97265625  2.47395833333333 14  2.375 14  L 0.339285714285714 14  C 0.240327380952381 14  0.159040178571429 13.97265625  0.0954241071428572 13.91796875  C 0.0318080357142857 13.86328125  0 13.7934027777778  0 13.7083333333333  L 0 11.9583333333333  C 0 11.8732638888889  0.0318080357142857 11.8033854166667  0.0954241071428572 11.7486979166667  C 0.159040178571429 11.6940104166667  0.240327380952381 11.6666666666667  0.339285714285714 11.6666666666667  L 2.375 11.6666666666667  C 2.47395833333333 11.6666666666667  2.55524553571429 11.6940104166667  2.61886160714286 11.7486979166667  Z M 6.69029017857143 10.58203125  C 6.75390625 10.63671875  6.78571428571429 10.7065972222222  6.78571428571429 10.7916666666667  L 6.78571428571429 13.7083333333333  C 6.78571428571429 13.7934027777778  6.75390625 13.86328125  6.69029017857143 13.91796875  C 6.62667410714286 13.97265625  6.54538690476191 14  6.44642857142857 14  L 4.41071428571429 14  C 4.31175595238095 14  4.23046875 13.97265625  4.16685267857143 13.91796875  C 4.10323660714286 13.86328125  4.07142857142857 13.7934027777778  4.07142857142857 13.7083333333333  L 4.07142857142857 10.7916666666667  C 4.07142857142857 10.7065972222222  4.10323660714286 10.63671875  4.16685267857143 10.58203125  C 4.23046875 10.52734375  4.31175595238095 10.5  4.41071428571429 10.5  L 6.44642857142857 10.5  C 6.54538690476191 10.5  6.62667410714286 10.52734375  6.69029017857143 10.58203125  Z M 10.76171875 8.24869791666667  C 10.8253348214286 8.30338541666667  10.8571428571429 8.37326388888889  10.8571428571429 8.45833333333333  L 10.8571428571429 13.7083333333333  C 10.8571428571429 13.7934027777778  10.8253348214286 13.86328125  10.76171875 13.91796875  C 10.6981026785714 13.97265625  10.6168154761905 14  10.5178571428571 14  L 8.48214285714286 14  C 8.38318452380953 14  8.30189732142857 13.97265625  8.23828125 13.91796875  C 8.17466517857143 13.86328125  8.14285714285714 13.7934027777778  8.14285714285714 13.7083333333333  L 8.14285714285714 8.45833333333333  C 8.14285714285714 8.37326388888889  8.17466517857143 8.30338541666667  8.23828125 8.24869791666667  C 8.30189732142857 8.19401041666667  8.38318452380953 8.16666666666667  8.48214285714286 8.16666666666667  L 10.5178571428571 8.16666666666667  C 10.6168154761905 8.16666666666667  10.6981026785714 8.19401041666667  10.76171875 8.24869791666667  Z M 14.8331473214286 4.74869791666667  C 14.8967633928571 4.80338541666667  14.9285714285714 4.87326388888889  14.9285714285714 4.95833333333333  L 14.9285714285714 13.7083333333333  C 14.9285714285714 13.7934027777778  14.8967633928571 13.86328125  14.8331473214286 13.91796875  C 14.76953125 13.97265625  14.688244047619 14  14.5892857142857 14  L 12.5535714285714 14  C 12.4546130952381 14  12.3733258928571 13.97265625  12.3097098214286 13.91796875  C 12.24609375 13.86328125  12.2142857142857 13.7934027777778  12.2142857142857 13.7083333333333  L 12.2142857142857 4.95833333333333  C 12.2142857142857 4.87326388888889  12.24609375 4.80338541666667  12.3097098214286 4.74869791666667  C 12.3733258928571 4.69401041666667  12.4546130952381 4.66666666666667  12.5535714285714 4.66666666666667  L 14.5892857142857 4.66666666666667  C 14.688244047619 4.66666666666667  14.76953125 4.69401041666667  14.8331473214286 4.74869791666667  Z M 18.9045758928571 0.08203125  C 18.9681919642857 0.13671875  19 0.20659722222222  19 0.291666666666667  L 19 13.7083333333333  C 19 13.7934027777778  18.9681919642857 13.86328125  18.9045758928571 13.91796875  C 18.8409598214286 13.97265625  18.7596726190476 14  18.6607142857143 14  L 16.625 14  C 16.5260416666667 14  16.4447544642857 13.97265625  16.3811383928571 13.91796875  C 16.3175223214286 13.86328125  16.2857142857143 13.7934027777778  16 13.7083333333333  L 16 0.291666666666667  C 16.2857142857143 0.20659722222222  16.3175223214286 0.13671875  16.3811383928571 0.08203125  C 16.4447544642857 0.02734375  16.5260416666667 0  16.625 0  L 18.6607142857143 0  C 18.7596726190476 0  18.8409598214286 0.02734375  18.9045758928571 0.08203125  Z " fill-rule="nonzero" fill="#d9001b" stroke="none" transform="matrix(1 0 0 1 689 374 )" />
  </g>
</svg>