<?xml version="1.0" encoding="utf-8"?>
<svg version="1.1" xmlns:xlink="http://www.w3.org/1999/xlink" width="19px" height="15px" xmlns="http://www.w3.org/2000/svg">
  <g transform="matrix(1 0 0 1 -651 -272 )">
    <path d="M 9.5 8.18181818181818  L 9.5 4.09090909090909  L 5.9375 4.09090909090909  L 5.9375 8.18181818181818  L 9.5 8.18181818181818  Z M 4.75 10.9090909090909  L 10.6875 10.9090909090909  L 10.6875 12.2727272727273  L 4.75 12.2727272727273  L 4.75 10.9090909090909  Z M 4.75 2.72727272727273  L 10.6875 2.72727272727273  L 10.6875 9.54545454545455  L 4.75 9.54545454545455  L 4.75 2.72727272727273  Z M 11.875 10.9090909090909  L 16.625 10.9090909090909  L 16.625 12.2727272727273  L 11.875 12.2727272727273  L 11.875 10.9090909090909  Z M 11.875 8.18181818181818  L 16.625 8.18181818181818  L 16.625 9.54545454545455  L 11.875 9.54545454545455  L 11.875 8.18181818181818  Z M 11.875 5.45454545454546  L 16.625 5.45454545454546  L 16.625 6.81818181818182  L 11.875 6.81818181818182  L 11.875 5.45454545454546  Z M 11.875 2.72727272727273  L 16.625 2.72727272727273  L 16.625 4.09090909090909  L 11.875 4.09090909090909  L 11.875 2.72727272727273  Z M 2.19873046875 13.4339488636364  C 2.31624348958333 13.2990056818182  2.375 13.1392045454545  2.375 12.9545454545455  L 2.375 2.72727272727273  L 1.1875 2.72727272727273  L 1.1875 12.9545454545455  C 1.1875 13.1392045454545  1.24625651041667 13.2990056818182  1.36376953125 13.4339488636364  C 1.48128255208333 13.5688920454545  1.62044270833333 13.6363636363636  1.78125 13.6363636363636  C 1.94205729166667 13.6363636363636  2.08121744791667 13.5688920454545  2.19873046875 13.4339488636364  Z M 17.63623046875 13.4339488636364  C 17.7537434895833 13.2990056818182  17.8125 13.1392045454545  17.8125 12.9545454545455  L 17.8125 1.36363636363636  L 3.5625 1.36363636363636  L 3.5625 12.9545454545455  C 3.5625 13.1889204545455  3.52848307291667 13.4161931818182  3.46044921875 13.6363636363636  L 17.21875 13.6363636363636  C 17.3795572916667 13.6363636363636  17.5187174479167 13.5688920454545  17.63623046875 13.4339488636364  Z M 2.375 0  L 19 0  L 19 12.9545454545455  C 19 13.5227272727273  18.8268229166667 14.0056818181818  18.48046875 14.4034090909091  C 18.1341145833333 14.8011363636364  17.7135416666667 15  17.21875 15  L 1.78125 15  C 1.28645833333333 15  0.865885416666667 14.8011363636364  0.51953125 14.4034090909091  C 0.173177083333333 14.0056818181818  0 13.5227272727273  0 12.9545454545455  L 0 1.36363636363636  L 2.375 1.36363636363636  L 2.375 0  Z " fill-rule="nonzero" fill="#000000" stroke="none" transform="matrix(1 0 0 1 651 272 )" />
  </g>
</svg>