<?xml version="1.0" encoding="utf-8"?>
<svg version="1.1" xmlns:xlink="http://www.w3.org/1999/xlink" width="50px" height="39px" xmlns="http://www.w3.org/2000/svg">
  <g transform="matrix(1 0 0 1 -294 -258 )">
    <path d="M 47.2098214285714 14.9850852272727  C 48.2700892857143 14.2649147727273  49.2001488095238 13.4616477272727  50 12.5752840909091  L 50 34.5681818181818  C 50 35.7869318181818  49.5628720238095 36.8302556818182  48.6886160714286 37.6981534090909  C 47.8143601190476 38.5660511363636  46.7633928571429 39  45.5357142857143 39  L 4.46428571428571 39  C 3.23660714285714 39  2.18563988095238 38.5660511363636  1.31138392857143 37.6981534090909  C 0.437127976190476 36.8302556818182  0 35.7869318181818  0 34.5681818181818  L 0 12.5752840909091  C 0.818452380952381 13.4801136363636  1.7578125 14.2833806818182  2.81808035714286 14.9850852272727  C 9.55171130952381 19.5276988636364  14.1741071428571 22.7130681818182  16.6852678571429 24.5411931818182  C 17.7455357142857 25.3167613636364  18.6058407738095 25.9215198863636  19.2661830357143 26.35546875  C 19.9265252976191 26.7894176136364  20.8054315476191 27.2325994318182  21.9029017857143 27.6850142045455  C 23.0003720238095 28.1374289772727  24.0234375 28.3636363636364  24.9720982142857 28.3636363636364  L 25 28.3636363636364  L 25.0279017857143 28.3636363636364  C 25.9765625 28.3636363636364  26.9996279761905 28.1374289772727  28.0970982142857 27.6850142045455  C 29.194568452381 27.2325994318182  30.073474702381 26.7894176136364  30.7338169642857 26.35546875  C 31.3941592261905 25.9215198863636  32.2544642857143 25.3167613636364  33.3147321428571 24.5411931818182  C 36.4769345238095 22.2698863636364  41.108630952381 19.0845170454545  47.2098214285714 14.9850852272727  Z M 48.6746651785714 1.30184659090909  C 49.5582217261905 2.16974431818181  50 3.21306818181818  50 4.43181818181818  C 50 5.89062499999999  49.5442708333333 7.28480113636364  48.6328125 8.61434659090909  C 47.7213541666667 9.94389204545455  46.5866815476191 11.0795454545455  45.2287946428571 12.0213068181818  C 38.2347470238095 16.8409090909091  33.882068452381 19.8416193181818  32.1707589285714 21.0234375  C 31.9847470238095 21.1526988636364  31.5894717261905 21.4343039772727  30.9849330357143 21.8682528409091  C 30.3803943452381 22.3022017045455  29.878162202381 22.6530539772727  29.4782366071429 22.9208096590909  C 29.0783110119048 23.1885653409091  28.5946800595238 23.4886363636364  28.02734375 23.8210227272727  C 27.4600074404762 24.1534090909091  26.9252232142857 24.4026988636364  26.4229910714286 24.5688920454545  C 25.9207589285714 24.7350852272727  25.4557291666667 24.8181818181818  25.0279017857143 24.8181818181818  L 25 24.8181818181818  L 24.9720982142857 24.8181818181818  C 24.5442708333333 24.8181818181818  24.0792410714286 24.7350852272727  23.5770089285714 24.5688920454545  C 23.0747767857143 24.4026988636364  22.5399925595238 24.1534090909091  21.97265625 23.8210227272727  C 21.4053199404762 23.4886363636364  20.9216889880952 23.1885653409091  20.5217633928571 22.9208096590909  C 20.1218377976191 22.6530539772727  19.6196056547619 22.3022017045455  19.0150669642857 21.8682528409091  C 18.4105282738095 21.4343039772727  18.0152529761905 21.1526988636364  17.8292410714286 21.0234375  C 16.1365327380952 19.8416193181818  13.6997767857143 18.1566051136364  10.5189732142857 15.9683948863636  C 7.33816964285714 13.7801846590909  5.43154761904762 12.4644886363636  4.79910714285714 12.0213068181818  C 3.64583333333333 11.2457386363636  2.55766369047619 10.1793323863636  1.53459821428571 8.82208806818182  C 0.511532738095238 7.46484375  0 6.20454545454545  0 5.04119318181818  C 0 3.60085227272727  0.385974702380953 2.40056818181818  1.15792410714286 1.44034090909091  C 1.92987351190476 0.480113636363633  3.03199404761905 0  4.46428571428571 0  L 45.5357142857143 0  C 46.7447916666667 0  47.7911086309524 0.433948863636359  48.6746651785714 1.30184659090909  Z " fill-rule="nonzero" fill="#000000" stroke="none" transform="matrix(1 0 0 1 294 258 )" />
  </g>
</svg>