<?xml version="1.0" encoding="utf-8"?>
<svg version="1.1" xmlns:xlink="http://www.w3.org/1999/xlink" width="16px" height="50px" xmlns="http://www.w3.org/2000/svg">
  <g transform="matrix(1 0 0 1 -311 -463 )">
    <path d="M 14.2062780269058 38.1747159090909  C 14.660687593423 38.6245265151515  14.8878923766816 39.157196969697  14.8878923766816 39.7727272727273  L 14.8878923766816 47.7272727272727  C 14.8878923766816 48.342803030303  14.660687593423 48.8754734848485  14.2062780269058 49.3252840909091  C 13.7518684603886 49.7750946969697  13.2137518684604 50  12.5919282511211 50  L 3.40807174887892 50  C 2.78624813153961 50  2.24813153961136 49.7750946969697  1.79372197309417 49.3252840909091  C 1.33931240657698 48.8754734848485  1.11210762331839 48.342803030303  1.11210762331839 47.7272727272727  L 1.11210762331839 39.7727272727273  C 1.11210762331839 39.157196969697  1.33931240657698 38.6245265151515  1.79372197309417 38.1747159090909  C 2.24813153961136 37.7249053030303  2.78624813153961 37.5  3.40807174887892 37.5  L 12.5919282511211 37.5  C 13.2137518684604 37.5  13.7518684603886 37.7249053030303  14.2062780269058 38.1747159090909  Z M 15.3363228699552 0.674715909090912  C 15.7787742899851 1.12452651515151  15.9880418535127 1.65719696969697  15.9641255605381 2.27272727272727  L 14.9596412556054 29.5454545454545  C 14.9357249626308 30.1609848484848  14.6905829596413 30.6936553030303  14.2242152466368 31.1434659090909  C 13.7578475336323 31.5932765151515  13.2137518684604 31.8181818181818  12.5919282511211 31.8181818181818  L 3.40807174887892 31.8181818181818  C 2.78624813153961 31.8181818181818  2.24215246636771 31.5932765151515  1.77578475336323 31.1434659090909  C 1.30941704035874 30.6936553030303  1.06427503736921 30.1609848484848  1.04035874439462 29.5454545454545  L 0.0358744394618834 2.27272727272727  C 0.0119581464872948 1.65719696969697  0.221225710014948 1.12452651515151  0.663677130044843 0.674715909090912  C 1.10612855007474 0.224905303030298  1.63826606875934 0  2.26008968609865 0  L 13.7399103139013 0  C 14.3617339312407 0  14.8938714499253 0.224905303030298  15.3363228699552 0.674715909090912  Z " fill-rule="nonzero" fill="#000000" stroke="none" transform="matrix(1 0 0 1 311 463 )" />
  </g>
</svg>