<?xml version="1.0" encoding="utf-8"?>
<svg version="1.1" xmlns:xlink="http://www.w3.org/1999/xlink" width="15px" height="12px" xmlns="http://www.w3.org/2000/svg">
  <g transform="matrix(1 0 0 1 -58 -523 )">
    <path d="M 6.10331632653061 10.9734375  C 6.0969387755102 11.0078125  6.10331632653061 11.05  6.12244897959184 11.1  C 6.12244897959184 11.125  6.12563775510204 11.1875  6.13201530612245 11.2875  C 6.13839285714286 11.3875  6.13998724489796 11.4703125  6.13679846938776 11.5359375  C 6.13360969387755 11.6015625  6.12404336734694 11.675  6.10809948979592 11.75625  C 6.0921556122449 11.8375  6.06026785714286 11.8984375  6.0124362244898 11.9390625  C 5.96460459183673 11.9796875  5.89923469387755 12  5.81632653061224 12  L 2.75510204081633 12  C 1.99617346938776 12  1.34725765306122 11.7359375  0.808354591836735 11.2078125  C 0.269451530612245 10.6796875  0 10.04375  0 9.3  L 0 2.7  C 0 1.95625  0.269451530612245 1.3203125  0.808354591836735 0.7921875  C 1.34725765306122 0.264062499999998  1.99617346938776 0  2.75510204081633 0  L 5.81632653061224 0  C 5.89923469387755 0  5.97098214285714 0.0296874999999983  6.03156887755102 0.0890625000000003  C 6.0921556122449 0.1484375  6.12244897959184 0.21875  6.12244897959184 0.3  C 6.12244897959184 0.324999999999999  6.12563775510204 0.387499999999999  6.13201530612245 0.4875  C 6.13839285714286 0.587499999999999  6.13998724489796 0.670312500000001  6.13679846938776 0.735937499999999  C 6.13360969387755 0.8015625  6.12404336734694 0.875  6.10809948979592 0.95625  C 6.0921556122449 1.0375  6.06026785714286 1.0984375  6.0124362244898 1.1390625  C 5.96460459183673 1.1796875  5.89923469387755 1.2  5.81632653061224 1.2  L 2.75510204081633 1.2  C 2.33418367346939 1.2  1.97385204081633 1.346875  1.67410714285714 1.640625  C 1.37436224489796 1.934375  1.22448979591837 2.2875  1.22448979591837 2.7  L 1.22448979591837 9.3  C 1.22448979591837 9.7125  1.37436224489796 10.065625  1.67410714285714 10.359375  C 1.97385204081633 10.653125  2.33418367346939 10.8  2.75510204081633 10.8  L 5.51020408163265 10.8  L 5.61543367346939 10.8  L 5.73979591836735 10.8  C 5.73979591836735 10.8  5.77646683673469 10.803125  5.84980867346939 10.809375  C 5.92315051020408 10.815625  5.95982142857143 10.825  5.95982142857143 10.8375  C 5.95982142857143 10.85  5.98533163265306 10.8671875  6.03635204081633 10.8890625  C 6.08737244897959 10.9109375  6.10969387755102 10.9390625  6.10331632653061 10.9734375  Z M 14.8182397959184 5.578125  C 14.9394132653061 5.696875  15 5.8375  15 6  C 15 6.1625  14.9394132653061 6.303125  14.8182397959184 6.421875  L 9.61415816326531 11.521875  C 9.49298469387755 11.640625  9.34948979591837 11.7  9.18367346938776 11.7  C 9.01785714285714 11.7  8.87436224489796 11.640625  8.7531887755102 11.521875  C 8.63201530612245 11.403125  8.57142857142857 11.2625  8.57142857142857 11.1  L 8.57142857142857 8.4  L 4.28571428571429 8.4  C 4.11989795918367 8.4  3.97640306122449 8.340625  3.85522959183673 8.221875  C 3.73405612244898 8.103125  3.6734693877551 7.9625  3.6734693877551 7.8  L 3.6734693877551 4.2  C 3.6734693877551 4.0375  3.73405612244898 3.896875  3.85522959183673 3.778125  C 3.97640306122449 3.659375  4.11989795918367 3.6  4.28571428571429 3.6  L 8.57142857142857 3.6  L 8.57142857142857 0.899999999999999  C 8.57142857142857 0.737499999999998  8.63201530612245 0.596874999999998  8.7531887755102 0.478124999999999  C 8.87436224489796 0.359375  9.01785714285714 0.3  9.18367346938776 0.3  C 9.34948979591837 0.3  9.49298469387755 0.359375  9.61415816326531 0.478124999999999  L 14.8182397959184 5.578125  Z " fill-rule="nonzero" fill="#ffffff" stroke="none" transform="matrix(1 0 0 1 58 523 )" />
  </g>
</svg>