<?xml version="1.0" encoding="utf-8"?>
<svg version="1.1" xmlns:xlink="http://www.w3.org/1999/xlink" width="21px" height="20px" xmlns="http://www.w3.org/2000/svg">
  <g transform="matrix(1 0 0 1 -1109 -160 )">
    <path d="M 7.50213068181818 7.6171875  C 7.59161931818182 7.6953125  7.63636363636364 7.79513888888889  7.63636363636364 7.91666666666667  L 7.63636363636364 15.4166666666667  C 7.63636363636364 15.5381944444444  7.59161931818182 15.6380208333333  7.50213068181818 15.7161458333333  C 7.41264204545455 15.7942708333333  7.29829545454546 15.8333333333333  7.15909090909091 15.8333333333333  L 6.20454545454546 15.8333333333333  C 6.06534090909091 15.8333333333333  5.95099431818182 15.7942708333333  5.86150568181818 15.7161458333333  C 5.77201704545455 15.6380208333333  5.72727272727273 15.5381944444444  5.72727272727273 15.4166666666667  L 5.72727272727273 7.91666666666667  C 5.72727272727273 7.79513888888889  5.77201704545455 7.6953125  5.86150568181818 7.6171875  C 5.95099431818182 7.5390625  6.06534090909091 7.5  6.20454545454546 7.5  L 7.15909090909091 7.5  C 7.29829545454546 7.5  7.41264204545455 7.5390625  7.50213068181818 7.6171875  Z M 11.3203125 7.6171875  C 11.4098011363636 7.6953125  11.4545454545455 7.79513888888889  11.4545454545455 7.91666666666667  L 11.4545454545455 15.4166666666667  C 11.4545454545455 15.5381944444444  11.4098011363636 15.6380208333333  11.3203125 15.7161458333333  C 11.2308238636364 15.7942708333333  11.1164772727273 15.8333333333333  10.9772727272727 15.8333333333333  L 10.0227272727273 15.8333333333333  C 9.88352272727273 15.8333333333333  9.76917613636364 15.7942708333333  9.6796875 15.7161458333333  C 9.59019886363636 15.6380208333333  9.54545454545455 15.5381944444444  9.54545454545455 15.4166666666667  L 9.54545454545455 7.91666666666667  C 9.54545454545455 7.79513888888889  9.59019886363636 7.6953125  9.6796875 7.6171875  C 9.76917613636364 7.5390625  9.88352272727273 7.5  10.0227272727273 7.5  L 10.9772727272727 7.5  C 11.1164772727273 7.5  11.2308238636364 7.5390625  11.3203125 7.6171875  Z M 15.1384943181818 7.6171875  C 15.2279829545455 7.6953125  15.2727272727273 7.79513888888889  15.2727272727273 7.91666666666667  L 15.2727272727273 15.4166666666667  C 15.2727272727273 15.5381944444444  15.2279829545455 15.6380208333333  15.1384943181818 15.7161458333333  C 15.0490056818182 15.7942708333333  14.9346590909091 15.8333333333333  14.7954545454545 15.8333333333333  L 13.8409090909091 15.8333333333333  C 13.7017045454545 15.8333333333333  13.5873579545455 15.7942708333333  13.4978693181818 15.7161458333333  C 13.4083806818182 15.6380208333333  13.3636363636364 15.5381944444444  13.3636363636364 15.4166666666667  L 13.3636363636364 7.91666666666667  C 13.3636363636364 7.79513888888889  13.4083806818182 7.6953125  13.4978693181818 7.6171875  C 13.5873579545455 7.5390625  13.7017045454545 7.5  13.8409090909091 7.5  L 14.7954545454545 7.5  C 14.9346590909091 7.5  15.0490056818182 7.5390625  15.1384943181818 7.6171875  Z M 17.0774147727273 17.87109375  C 17.1470170454545 17.7105034722222  17.1818181818182 17.5347222222222  17 17.34375  L 17 5  L 4 5  L 4 17.34375  C 3.81818181818182 17.5347222222222  3.85298295454546 17.7105034722222  3.92258522727273 17.87109375  C 3.9921875 18.0316840277778  4.06427556818182 18.1488715277778  4.13884943181818 18.22265625  C 4.21342329545455 18.2964409722222  4.265625 18.3333333333333  4.29545454545455 18  L 16.7045454545455 18  C 16.734375 18.3333333333333  16.7865767045455 18.2964409722222  16.8611505681818 18.22265625  C 16.9357244318182 18.1488715277778  17.0078125 18.0316840277778  17.0774147727273 17.87109375  Z M 7.88991477272727 1.80989583333333  L 7.15909090909091 3.33333333333333  L 13.8409090909091 3.33333333333333  L 13.125 1.80989583333333  C 13.0553977272727 1.73177083333333  12.9708806818182 1.68402777777778  12.8714488636364 1.66666666666667  L 8.14346590909091 1.66666666666667  C 8.04403409090909 1.68402777777778  7.95951704545455 1.73177083333333  7.88991477272727 1.80989583333333  Z M 20.8657670454545 3.45052083333333  C 20.9552556818182 3.52864583333333  21 3.62847222222222  21 3.75  L 21 4.58333333333333  C 21 4.70486111111111  20.9552556818182 4.8046875  20.8657670454545 4.8828125  C 20.7762784090909 4.9609375  20.6619318181818 5  20.5227272727273 5  L 19 5  L 19 17.34375  C 19.0909090909091 18.0642361111111  18.8572443181818 18.6870659722222  18.3899147727273 19.2122395833333  C 17.9225852272727 19.7374131944444  17.3607954545455 20  16.7045454545455 20  L 4.29545454545455 20  C 3.63920454545455 20  3.07741477272727 19.74609375  2.61008522727273 19.23828125  C 2.14275568181818 18.73046875  1.90909090909091 18.1163194444444  2 17.3958333333333  L 2 5  L 0.477272727272727 5  C 0.338068181818182 5  0.223721590909091 4.9609375  0.134232954545455 4.8828125  C 0.0447443181818182 4.8046875  0 4.70486111111111  0 4.58333333333333  L 0 3.75  C 0 3.62847222222222  0.0447443181818182 3.52864583333333  0.134232954545455 3.45052083333333  C 0.223721590909091 3.37239583333333  0.338068181818182 3.33333333333333  0.477272727272727 3.33333333333333  L 5.0859375 3.33333333333333  L 6.12997159090909 1.15885416666667  C 6.27911931818182 0.837673611111109  6.54758522727273 0.564236111111109  6.93536931818182 0.338541666666667  C 7.32315340909091 0.112847222222221  7.71590909090909 0  8.11363636363636 0  L 12.8863636363636 0  C 13.2840909090909 0  13.6768465909091 0.112847222222221  14.0646306818182 0.338541666666667  C 14.4524147727273 0.564236111111109  14.7208806818182 0.837673611111109  14.8700284090909 1.15885416666667  L 15.9140625 3.33333333333333  L 20.5227272727273 3.33333333333333  C 20.6619318181818 3.33333333333333  20.7762784090909 3.37239583333333  20.8657670454545 3.45052083333333  Z " fill-rule="nonzero" fill="#d9001b" stroke="none" transform="matrix(1 0 0 1 1109 160 )" />
  </g>
</svg>