<?xml version="1.0" encoding="utf-8"?>
<svg version="1.1" xmlns:xlink="http://www.w3.org/1999/xlink" width="28px" height="21px" xmlns="http://www.w3.org/2000/svg">
  <g transform="matrix(1 0 0 1 -922 -159 )">
    <path d="M 25.8515625 18.94921875  C 25.9505208333333 18.8547585227273  26 18.7428977272727  26 18.6136363636364  L 26 7.15909090909091  C 25.6666666666667 7.51704545454545  25.3072916666667 7.84517045454545  24.921875 8.14346590909091  C 22.1302083333333 10.1917613636364  19.9114583333333 11.8721590909091  18.265625 13.1846590909091  C 17.734375 13.6122159090909  17.3020833333333 13.9453125  16.96875 14.1839488636364  C 16.6354166666667 14.4225852272727  16.1848958333333 14.6637073863636  15.6171875 14.9073153409091  C 15.0494791666667 15.1509232954545  14.515625 15.2727272727273  14.015625 15.2727272727273  L 14 15.2727272727273  L 13.984375 15.2727272727273  C 13.484375 15.2727272727273  12.9505208333333 15.1509232954545  12.3828125 14.9073153409091  C 11.8151041666667 14.6637073863636  11.3645833333333 14.4225852272727  11.03125 14.1839488636364  C 10.6979166666667 13.9453125  10.265625 13.6122159090909  9.734375 13.1846590909091  C 8.08854166666667 11.8721590909091  5.86979166666667 10.1917613636364  3.078125 8.14346590909091  C 2.69270833333333 7.84517045454545  2.33333333333333 7.51704545454545  2 7.15909090909091  L 2 18.6136363636364  C 2 18.7428977272727  2.04947916666667 18.8547585227273  2.1484375 18.94921875  C 2.24739583333333 19.0436789772727  2.36458333333333 19.0909090909091  2.5 19  L 25.5 19  C 25.6354166666667 19.0909090909091  25.7526041666667 19.0436789772727  25.8515625 18.94921875  Z M 25.2734375 4.89950284090909  C 25.7578125 4.17862215909091  26 3.52485795454545  26 2.93821022727273  L 26 2.77414772727273  L 26 2.57279829545455  C 26 2.57279829545455  25.9973958333333 2.50816761363636  25.9921875 2.37890625  C 25.9869791666667 2.24964488636363  25.9713541666667 2.1875  25.9453125 2.19247159090909  C 25.9192708333333 2.19744318181818  25.890625 2.15269886363636  25.859375 2.05823863636364  C 25.828125 1.96377840909091  25.78125 1.92649147727273  25.71875 1.94637784090909  C 25.65625 1.96626420454545  25.5833333333333 1.95383522727273  25.5 2  L 2.5 2  C 2.36458333333333 1.90909090909091  2.24739583333333 1.95632102272727  2.1484375 2.05078125  C 2.04947916666667 2.14524147727273  2 2.25710227272727  2 2.38636363636364  C 2 4.05681818181818  2.765625 5.46875  4.296875 6.62215909090909  C 6.30729166666667 8.13352272727272  8.39583333333333 9.70951704545455  10.5625 11.3501420454545  C 10.625 11.3998579545455  10.8072916666667 11.5465198863636  11.109375 11.7901278409091  C 11.4114583333333 12.0337357954545  11.6510416666667 12.2201704545455  11.828125 12.3494318181818  C 12.0052083333333 12.4786931818182  12.2369791666667 12.6352982954545  12.5234375 12.8192471590909  C 12.8098958333333 13.0031960227273  13.0729166666667 13.1399147727273  13.3125 13.2294034090909  C 13.5520833333333 13.3188920454545  13.7760416666667 13.3636363636364  13.984375 13.3636363636364  L 14 13.3636363636364  L 14.015625 13.3636363636364  C 14.2239583333333 13.3636363636364  14.4479166666667 13.3188920454545  14.6875 13.2294034090909  C 14.9270833333333 13.1399147727273  15.1901041666667 13.0031960227273  15.4765625 12.8192471590909  C 15.7630208333333 12.6352982954545  15.9947916666667 12.4786931818182  16.171875 12.3494318181818  C 16.3489583333333 12.2201704545455  16.5885416666667 12.0337357954545  16.890625 11.7901278409091  C 17.1927083333333 11.5465198863636  17.375 11.3998579545455  17.4375 11.3501420454545  C 19.6041666666667 9.70951704545455  21.6927083333333 8.13352272727272  23.703125 6.62215909090909  C 24.265625 6.19460227272727  24.7890625 5.62038352272727  25.2734375 4.89950284090909  Z M 27.265625 0.700994318181817  C 27.7552083333333 1.16832386363636  28 1.73011363636364  28 2.38636363636364  L 28 18.6136363636364  C 28 19.2698863636364  27.7552083333333 19.8316761363636  27.265625 20.2990056818182  C 26.7760416666667 20.7663352272727  26.1875 21  25.5 21  L 2.5 21  C 1.8125 21  1.22395833333333 20.7663352272727  0.734375 20.2990056818182  C 0.244791666666667 19.8316761363636  0 19.2698863636364  0 18.6136363636364  L 0 2.38636363636364  C 0 1.73011363636364  0.244791666666667 1.16832386363636  0.734375 0.700994318181817  C 1.22395833333333 0.23366477272727  1.8125 0  2.5 0  L 25.5 0  C 26.1875 0  26.7760416666667 0.23366477272727  27.265625 0.700994318181817  Z " fill-rule="nonzero" fill="#000000" stroke="none" transform="matrix(1 0 0 1 922 159 )" />
  </g>
</svg>