<?xml version="1.0" encoding="utf-8"?>
<svg version="1.1" xmlns:xlink="http://www.w3.org/1999/xlink" width="50px" height="42px" xmlns="http://www.w3.org/2000/svg">
  <g transform="matrix(1 0 0 1 -294 -359 )">
    <path d="M 16.8108258928571 20.3860465116279  C 17.5083705357143 19.6883720930233  17.8571428571429 18.846511627907  17.8571428571429 17.8604651162791  C 17.8571428571429 16.8744186046512  17.5083705357143 16.0325581395349  16.8108258928571 15.3348837209302  C 16.11328125 14.6372093023256  15.2715773809524 14.2883720930233  14.2857142857143 14.2883720930233  C 13.2998511904762 14.2883720930233  12.4581473214286 14.6372093023256  11.7606026785714 15.3348837209302  C 11.0630580357143 16.0325581395349  10.7142857142857 16.8744186046512  10.7142857142857 17.8604651162791  C 10.7142857142857 18.846511627907  11.0630580357143 19.6883720930233  11.7606026785714 20.3860465116279  C 12.4581473214286 21.0837209302326  13.2998511904762 21.4325581395349  14.2857142857143 21.4325581395349  C 15.2715773809524 21.4325581395349  16.11328125 21.0837209302326  16.8108258928571 20.3860465116279  Z M 27.5251116071429 20.3860465116279  C 28.22265625 19.6883720930233  28.5714285714286 18.846511627907  28.5714285714286 17.8604651162791  C 28.5714285714286 16.8744186046512  28.22265625 16.0325581395349  27.5251116071429 15.3348837209302  C 26.8275669642857 14.6372093023256  25.9858630952381 14.2883720930233  25 14.2883720930233  C 24.0141369047619 14.2883720930233  23.1724330357143 14.6372093023256  22.4748883928571 15.3348837209302  C 21.77734375 16.0325581395349  21.4285714285714 16.8744186046512  21.4285714285714 17.8604651162791  C 21.4285714285714 18.846511627907  21.77734375 19.6883720930233  22.4748883928571 20.3860465116279  C 23.1724330357143 21.0837209302326  24.0141369047619 21.4325581395349  25 21.4325581395349  C 25.9858630952381 21.4325581395349  26.8275669642857 21.0837209302326  27.5251116071429 20.3860465116279  Z M 38.2393973214286 20.3860465116279  C 38.9369419642857 19.6883720930233  39.2857142857143 18.846511627907  39.2857142857143 17.8604651162791  C 39.2857142857143 16.8744186046512  38.9369419642857 16.0325581395349  38.2393973214286 15.3348837209302  C 37.5418526785714 14.6372093023256  36.7001488095238 14.2883720930233  35.7142857142857 14.2883720930233  C 34.7284226190476 14.2883720930233  33.88671875 14.6372093023256  33.1891741071429 15.3348837209302  C 32.4916294642857 16.0325581395349  32.1428571428571 16.8744186046512  32.1428571428571 17.8604651162791  C 32.1428571428571 18.846511627907  32.4916294642857 19.6883720930233  33.1891741071429 20.3860465116279  C 33.88671875 21.0837209302326  34.7284226190476 21.4325581395349  35.7142857142857 21.4325581395349  C 36.7001488095238 21.4325581395349  37.5418526785714 21.0837209302326  38.2393973214286 20.3860465116279  Z M 46.6517857142857 8.88837209302326  C 48.8839285714286 11.6325581395349  50 14.6232558139535  50 17.8604651162791  C 50 21.0976744186047  48.8839285714286 24.0883720930233  46.6517857142857 26.8325581395349  C 44.4196428571429 29.5767441860465  41.3876488095238 31.7441860465116  37.5558035714286 33.3348837209302  C 33.7239583333333 34.9255813953488  29.5386904761905 35.7209302325581  25 35.7209302325581  C 22.9538690476191 35.7209302325581  20.991443452381 35.553488372093  19.1127232142857 35.2186046511628  C 15.8947172619048 38.4372093023256  11.8489583333333 40.5674418604651  6.97544642857143 41.6093023255814  C 6.00818452380952 41.7953488372093  5.20833333333333 41.9162790697674  4.57589285714286 41.9720930232558  C 4.35267857142857 41.9906976744186  4.14806547619048 41.9348837209302  3.96205357142857 41.8046511627907  C 3.77604166666667 41.6744186046512  3.65513392857143 41.506976744186  3.59933035714286 41.3023255813954  C 3.5249255952381 41.0232558139535  3.7109375 40.6790697674419  4.15736607142857 40.2697674418605  C 4.25037202380952 40.1767441860465  4.46893601190476 39.9767441860465  4.81305803571429 39.6697674418605  C 5.15718005952381 39.3627906976744  5.39434523809524 39.1441860465116  5.52455357142857 39.0139534883721  C 5.65476190476191 38.8837209302326  5.87332589285714 38.646511627907  6.18024553571429 38.3023255813954  C 6.48716517857143 37.9581395348837  6.71037946428571 37.6651162790698  6.84988839285714 37.4232558139535  C 6.98939732142857 37.1813953488372  7.18005952380952 36.8372093023256  7.421875 36.3906976744186  C 7.66369047619048 35.9441860465116  7.84970238095238 35.4976744186046  7.97991071428571 35.0511627906977  C 8.11011904761905 34.6046511627907  8.24497767857143 34.0697674418605  8.38448660714286 33.446511627907  C 8.52399553571429 32.8232558139535  8.64025297619048 32.1488372093023  8.73325892857143 31.4232558139535  C 6.01748511904762 29.7488372093023  3.88299851190476 27.7348837209302  2.32979910714286 25.3813953488372  C 0.776599702380952 23.0279069767442  0 20.5209302325581  0 17.8604651162791  C 0 14.6232558139535  1.11607142857143 11.6325581395349  3.34821428571429 8.88837209302326  C 5.58035714285714 6.14418604651162  8.61235119047619 3.97674418604651  12.4441964285714 2.38604651162791  C 16.2760416666667 0.795348837209304  20.4613095238095 0  25 0  C 29.5386904761905 0  33.7239583333333 0.795348837209304  37.5558035714286 2.38604651162791  C 41.3876488095238 3.97674418604651  44.4196428571429 6.14418604651162  46.6517857142857 8.88837209302326  Z " fill-rule="nonzero" fill="#000000" stroke="none" transform="matrix(1 0 0 1 294 359 )" />
  </g>
</svg>