<?xml version="1.0" encoding="utf-8"?>
<svg version="1.1" xmlns:xlink="http://www.w3.org/1999/xlink" width="8px" height="17px" xmlns="http://www.w3.org/2000/svg">
  <g transform="matrix(1 0 0 1 582 -93 )">
    <path d="M 7.10313901345291 12.9794034090909  C 7.33034379671151 13.1323390151515  7.44394618834081 13.313446969697  7.44394618834081 13.5227272727273  L 7.44394618834081 16.2272727272727  C 7.44394618834081 16.436553030303  7.33034379671151 16.6176609848485  7.10313901345291 16.7705965909091  C 6.87593423019432 16.9235321969697  6.6068759342302 17  6.29596412556054 17  L 1.70403587443946 17  C 1.39312406576981 17  1.12406576980568 16.9235321969697  0.896860986547085 16.7705965909091  C 0.66965620328849 16.6176609848485  0.556053811659193 16.436553030303  0.556053811659193 16.2272727272727  L 0.556053811659193 13.5227272727273  C 0.556053811659193 13.313446969697  0.66965620328849 13.1323390151515  0.896860986547085 12.9794034090909  C 1.12406576980568 12.8264678030303  1.39312406576981 12.75  1.70403587443946 12.75  L 6.29596412556054 12.75  C 6.6068759342302 12.75  6.87593423019432 12.8264678030303  7.10313901345291 12.9794034090909  Z M 7.66816143497758 0.22940340909091  C 7.88938714499253 0.382339015151513  7.99402092675635 0.563446969696969  7.98206278026906 0.772727272727272  L 7.47982062780269 10.0454545454545  C 7.4678624813154 10.2547348484848  7.34529147982063 10.4358428030303  7.11210762331839 10.5887784090909  C 6.87892376681614 10.7417140151515  6.6068759342302 10.8181818181818  6.29596412556054 10.8181818181818  L 1.70403587443946 10.8181818181818  C 1.39312406576981 10.8181818181818  1.12107623318386 10.7417140151515  0.887892376681614 10.5887784090909  C 0.654708520179372 10.4358428030303  0.532137518684604 10.2547348484848  0.520179372197309 10.0454545454545  L 0.0179372197309417 0.772727272727272  C 0.0059790732436474 0.563446969696969  0.110612855007474 0.382339015151513  0.331838565022422 0.22940340909091  C 0.553064275037369 0.0764678030303014  0.819133034379671 0  1.13004484304933 0  L 6.86995515695067 0  C 7.18086696562033 0  7.44693572496263 0.0764678030303014  7.66816143497758 0.22940340909091  Z " fill-rule="nonzero" fill="#d9001b" stroke="none" transform="matrix(1 0 0 1 -582 93 )" />
  </g>
</svg>