<?xml version="1.0" encoding="utf-8"?>
<svg version="1.1" xmlns:xlink="http://www.w3.org/1999/xlink" width="15px" height="11px" xmlns="http://www.w3.org/2000/svg">
  <g transform="matrix(1 0 0 1 -58 -398 )">
    <path d="M 14.788451303885 6.1015625  C 14.9294837679617 6.16927083333333  15 6.28125  15 6.4375  C 15 6.59895833333333  14.9175093134646 6.77083333333333  14.7525279403938 6.953125  L 12.0702501330495 10.046875  C 11.841405002661 10.3125  11.5207557211283 10.5377604166667  11.1083022884513 10.72265625  C 10.6958488557743 10.9075520833333  10.3139968068121 11  9.96274614156466 11  L 1.27727514635444 11  C 1.09632783395423 11  0.935337945715806 10.9661458333333  0.79430548163917 10.8984375  C 0.653273017562533 10.8307291666667  0.582756785524215 10.71875  0.582756785524215 10.5625  C 0.582756785524215 10.4010416666667  0.665247472059606 10.2291666666667  0.830228845130388 10.046875  L 3.51250665247472 6.953125  C 3.74135178286323 6.6875  4.06200106439596 6.46223958333333  4.47445449707291 6.27734375  C 4.88690792974987 6.09244791666667  5.26875997871208 6  5.62001064395955 6  L 14.3054816391698 6  C 14.48642895157 6  14.6474188398084 6.03385416666667  14.788451303885 6.1015625  Z M 11.7349654071315 2.515625  C 12.0862160723789 2.859375  12.2618414050027 3.27083333333333  12.2618414050027 3.75  L 12.2618414050027 5  L 5.62001064395955 5  C 5.11974454497073 5  4.59552953698776 5.12369791666667  4.04736562001064 5.37109375  C 3.49920170303353 5.61848958333333  3.06279936136243 5.9296875  2.73815859499734 6.3046875  L 0.0478978179882916 9.3984375  L 0.00798296966471527 9.4453125  C 0.00798296966471527 9.42447916666667  0.00665247472059606 9.39192708333333  0.00399148483235764 9.34765625  C 0.00133049494411921 9.30338541666667  0 9.27083333333333  0 9.25  L 0 1.75  C 0 1.27083333333333  0.175625332623736 0.859375  0.526875997871208 0.515625  C 0.87812666311868 0.171875  1.29856306546035 0  1.78818520489622 0  L 4.34273549760511 0  C 4.83235763704098 0  5.25279403938265 0.171875  5.60404470463012 0.515625  C 5.95529536987759 0.859375  6.13092070250133 1.27083333333333  6.13092070250133 1.75  L 6.13092070250133 2  L 10.4736562001064 2  C 10.9632783395423 2  11.383714741884 2.171875  11.7349654071315 2.515625  Z " fill-rule="nonzero" fill="#ffffff" stroke="none" transform="matrix(1 0 0 1 58 398 )" />
  </g>
</svg>