<?xml version="1.0" encoding="utf-8"?>
<svg version="1.1" xmlns:xlink="http://www.w3.org/1999/xlink" width="10px" height="17px" xmlns="http://www.w3.org/2000/svg">
  <g transform="matrix(1 0 0 1 -58 -311 )">
    <path d="M 9.82817869415807 8.10821643286573  C 9.94272623138603 8.22177688710755  10 8.35237140948564  10 8.5  C 10 8.64762859051436  9.94272623138603 8.77822311289245  9.82817869415807 8.89178356713427  L 1.8213058419244 16.8296593186373  C 1.70675830469645 16.9432197728791  1.57502863688431 17  1.42611683848797 17  C 1.27720504009164 17  1.1454753722795 16.9432197728791  1.03092783505155 16.8296593186373  L 0.171821305841924 15.9779559118236  C 0.0572737686139748 15.8643954575818  0 15.7338009352037  0 15.5861723446894  C 0 15.438543754175  0.0572737686139748 15.3079492317969  0.171821305841924 15.1943887775551  L 6.92439862542955 8.5  L 0.171821305841924 1.80561122244489  C 0.0572737686139748 1.69205076820307  0 1.56145624582498  0 1.41382765531062  C 0 1.26619906479626  0.0572737686139748 1.13560454241817  0.171821305841924 1.02204408817635  L 1.03092783505155 0.170340681362726  C 1.1454753722795 0.0567802271209079  1.27720504009164 0  1.42611683848797 0  C 1.57502863688431 0  1.70675830469645 0.0567802271209079  1.8213058419244 0.170340681362726  L 9.82817869415807 8.10821643286573  Z " fill-rule="nonzero" fill="#ffffff" stroke="none" transform="matrix(1 0 0 1 58 311 )" />
  </g>
</svg>