<?xml version="1.0" encoding="utf-8"?>
<svg version="1.1" xmlns:xlink="http://www.w3.org/1999/xlink" width="17px" height="17px" xmlns="http://www.w3.org/2000/svg">
  <g transform="matrix(1 0 0 1 -58 -59 )">
    <path d="M 10.1712239583333 8.77669270833333  L 11.8424479166667 10.458984375  L 10.0716145833333 12.2298177083333  L 8.400390625 13.912109375  L 8.068359375 14.244140625  C 7.58875868055556 14.7163628472222  7.02983940972222 15.0373263888889  6.3916015625 15.20703125  C 5.75336371527778 15.3767361111111  5.12065972222222 15.3841145833333  4.49348958333333 15.2291666666667  C 4.37543402777778 15.7456597222222  4.10980902777778 16.169921875  3.69661458333333 16.501953125  C 3.28342013888889 16.833984375  2.80750868055556 17  2.26888020833333 17  C 1.64171006944444 17  1.10677083333333 16.7768012152778  0.6640625 16.3304036458333  C 0.221354166666667 15.8840060763889  0 15.3472222222222  0 14.7200520833333  C 0 14.1888020833333  0.164171006944444 13.7165798611111  0.492513020833333 13.3033854166667  C 0.820855034722222 12.8901909722222  1.23958333333333 12.6245659722222  1.74869791666667 12.5065104166667  C 1.58637152777778 11.8719618055556  1.59006076388889 11.2337239583333  1.759765625 10.591796875  C 1.92947048611111 9.94986979166667  2.25412326388889 9.38910590277778  2.73372395833333 8.90950520833333  L 2.86653645833333 8.77669270833333  L 4.53776041666667 10.458984375  L 4.416015625 10.5807291666667  C 4.14301215277778 10.8537326388889  4.00651041666667 11.1820746527778  4.00651041666667 11.5657552083333  C 4.00651041666667 11.9494357638889  4.14301215277778 12.2814670138889  4.416015625 12.5618489583333  C 4.68901909722222 12.8348524305556  5.01736111111111 12.9713541666667  5.40104166666667 12.9713541666667  C 5.78472222222222 12.9713541666667  6.11306423611111 12.8348524305556  6.38606770833333 12.5618489583333  L 6.71809895833333 12.2298177083333  L 8.38932291666667 10.5475260416667  L 10.1712239583333 8.77669270833333  Z M 6.41373697916667 1.9423828125  C 7.04459635416667 2.11577690972222  7.59613715277778 2.43858506944444  8.068359375 2.91080729166667  L 8.201171875 3.04361979166667  L 6.51888020833333 4.72591145833333  L 6.38606770833333 4.59309895833333  C 6.11306423611111 4.32009548611111  5.78472222222222 4.18359375  5.40104166666667 4.18359375  C 5.01736111111111 4.18359375  4.68901909722222 4.32009548611111  4.416015625 4.59309895833333  C 4.14301215277778 4.86610243055555  4.00651041666667 5.1962890625  4.00651041666667 5.58365885416667  C 4.00651041666667 5.97102864583333  4.14301215277778 6.30121527777778  4.416015625 6.57421875  L 4.73697916666667 6.89518229166667  L 6.41927083333333 8.57747395833333  L 8.19010416666667 10.3483072916667  L 6.51888020833333 12.0305989583333  L 4.73697916666667 10.259765625  L 3.06575520833333 8.57747395833333  L 2.73372395833333 8.24544270833333  C 2.23198784722222 7.75108506944444  1.89995659722222 7.16265190972222  1.73763020833333 6.48014322916667  C 1.57530381944444 5.79763454861111  1.59375 5.13541666666667  1.79296875 4.49348958333333  C 1.27647569444444 4.3828125  0.852213541666667 4.12087673611111  0.520182291666667 3.70768229166667  C 0.188151041666667 3.29448784722222  0.0221354166666667 2.81857638888889  0.0221354166666667 2.27994791666667  C 0.0221354166666667 1.65277777777778  0.243489583333333 1.11599392361111  0.686197916666667 0.669596354166667  C 1.12890625 0.223198784722221  1.66384548611111 0  2.291015625 0  C 2.85177951388889 0  3.34429253472222 0.180772569444443  3.7685546875 0.542317708333333  C 4.19281684027778 0.903862847222221  4.44921875 1.35763888888889  4.53776041666667 1.90364583333333  C 5.15755208333333 1.75607638888889  5.78287760416667 1.76898871527778  6.41373697916667 1.9423828125  Z M 16.4410807291667 13.2314453125  C 16.8136935763889 13.6557074652778  17 14.1519097222222  17 14.7200520833333  C 17 15.3472222222222  16.7786458333333 15.8840060763889  16.3359375 16.3304036458333  C 15.8932291666667 16.7768012152778  15.3582899305556 17  14.7311197916667 17  C 14.1851128472222 17  13.7018229166667 16.8266059027778  13.28125 16.4798177083333  C 12.8606770833333 16.1330295138889  12.5987413194444 15.6976996527778  12.4954427083333 15.173828125  C 11.8608940972222 15.3804253472222  11.1986762152778 15.4025607638889  10.5087890625 15.240234375  C 9.81890190972222 15.0779079861111  9.22309027777778 14.7458767361111  8.72135416666667 14.244140625  L 8.599609375 14.111328125  L 10.2708333333333 12.4290364583333  L 10.4036458333333 12.5618489583333  C 10.6766493055556 12.8348524305556  11.0049913194444 12.9713541666667  11.388671875 12.9713541666667  C 11.7723524305556 12.9713541666667  12.1006944444444 12.8348524305556  12.3736979166667 12.5618489583333  C 12.6467013888889 12.2888454861111  12.783203125 11.9605034722222  12.783203125 11.5768229166667  C 12.783203125 11.1931423611111  12.6467013888889 10.8648003472222  12.3736979166667 10.591796875  L 12.0416666666667 10.259765625  L 10.359375 8.57747395833333  L 8.58854166666667 6.806640625  L 10.2708333333333 5.12434895833333  L 12.0416666666667 6.89518229166667  L 13.7239583333333 8.57747395833333  L 14.044921875 8.90950520833333  C 14.5171440972222 9.38172743055556  14.8399522569444 9.93695746527778  15.0133463541667 10.5751953125  C 15.1867404513889 11.2134331597222  15.1959635416667 11.8461371527778  15.041015625 12.4733072916667  C 15.6017795138889 12.5544704861111  16.0684678819444 12.8071831597222  16.4410807291667 13.2314453125  Z M 16.3138020833333 0.669596354166667  C 16.7565104166667 1.11599392361111  16.9778645833333 1.65277777777778  16.9778645833333 2.27994791666667  C 16.9778645833333 2.84809027777778  16.7897135416667 3.34613715277778  16.4134114583333 3.77408854166667  C 16.037109375 4.20203993055555  15.5685763888889 4.45659722222222  15.0078125 4.53776041666667  C 15.1996527777778 5.16493055555555  15.2107204861111 5.81608072916667  15.041015625 6.4912109375  C 14.8713107638889 7.16634114583333  14.5392795138889 7.75108506944444  14.044921875 8.24544270833333  L 13.912109375 8.37825520833333  L 12.2408854166667 6.69596354166667  L 12.3736979166667 6.56315104166667  C 12.6467013888889 6.29014756944444  12.783203125 5.96180555555555  12.783203125 5.578125  C 12.783203125 5.19444444444444  12.6467013888889 4.86610243055555  12.3736979166667 4.59309895833333  C 12.1006944444444 4.32009548611111  11.7723524305556 4.18359375  11.388671875 4.18359375  C 11.0049913194444 4.18359375  10.6766493055556 4.32009548611111  10.4036458333333 4.59309895833333  L 10.0716145833333 4.92513020833333  L 8.38932291666667 6.607421875  L 6.61848958333333 8.37825520833333  L 4.93619791666667 6.69596354166667  L 6.71809895833333 4.92513020833333  L 8.400390625 3.24283854166667  L 8.72135416666667 2.91080729166667  C 9.21571180555556 2.41644965277778  9.80230034722222 2.08626302083333  10.4811197916667 1.92024739583333  C 11.1599392361111 1.75423177083333  11.8166232638889 1.76714409722222  12.451171875 1.958984375  C 12.5323350694444 1.40559895833333  12.7850477430556 0.940755208333333  13.2093098958333 0.564453125  C 13.6335720486111 0.188151041666667  14.1334635416667 0  14.708984375 0  C 15.3361545138889 0  15.87109375 0.223198784722221  16.3138020833333 0.669596354166667  Z " fill-rule="nonzero" fill="#ffffff" stroke="none" transform="matrix(1 0 0 1 58 59 )" />
  </g>
</svg>