<?xml version="1.0" encoding="utf-8"?>
<svg version="1.1" xmlns:xlink="http://www.w3.org/1999/xlink" width="20px" height="16px" xmlns="http://www.w3.org/2000/svg">
  <g transform="matrix(1 0 0 1 -58 -15 )">
    <path d="M 17.1251548946716 9.141075604053  C 17.1334159438249 9.15770329955833  17.1375464684015 9.18264484281632  17.1375464684015 9.21590023382697  L 17.1375464684015 15.2018706157443  C 17.1375464684015 15.4180306573136  17.0590665014457 15.6050922317485  16.9021065675341 15.7630553390491  C 16.7451466336225 15.9210184463497  16.5592730276745 16  16.3444857496902 16  L 11.5861214374226 16  L 11.5861214374226 11.2112236944661  L 8.41387856257745 11.2112236944661  L 8.41387856257745 16  L 3.65551425030979 16  C 3.44072697232549 16  3.25485336637753 15.9210184463497  3.09789343246592 15.7630553390491  C 2.94093349855432 15.6050922317485  2.86245353159851 15.4180306573136  2.86245353159851 15.2018706157443  L 2.86245353159851 9.21590023382697  C 2.86245353159851 9.2075863860743  2.86451879388682 9.19511561444531  2.86864931846345 9.17848791893998  C 2.87277984304007 9.16186022343466  2.87484510532838 9.14938945180566  2.87484510532838 9.141075604053  L 10 3.22992985190959  L 17.1251548946716 9.141075604053  Z M 19.9876084262701 8.06235385814497  C 19.9958694754234 8.17459080280592  19.966955803387 8.27227851389971  19.9008674101611 8.35541699142635  L 19.1325898389095 9.27825409197194  C 19.0665014456836 9.35307872174591  18.9797604295746 9.39880488438556  18.8723667905824 9.41543257989088  L 18.8351920693928 9.41543257989088  C 18.7277984304007 9.41543257989088  18.6410574142916 9.38633411275656  18.5749690210657 9.32813717848792  L 10 2.13250194855807  L 1.42503097893432 9.32813717848792  C 1.32589838909542 9.39464796050922  1.22676579925651 9.42374642764354  1.1276332094176 9.41543257989088  C 1.02023957042544 9.39880488438556  0.933498554316398 9.35307872174591  0.867410161090458 9.27825409197194  L 0.0991325898389095 8.35541699142635  C 0.0330441966129699 8.27227851389971  0.00413052457662126 8.17459080280592  0.0123915737298637 8.06235385814497  C 0.0206526228831062 7.95011691348402  0.0660883932259397 7.86074305014289  0.148698884758364 7.79423226812159  L 9.05824039653036 0.324240062353859  C 9.32259396943412 0.108080020784618  9.63651383725733 0  10 0  C 10.3634861627427 0  10.6774060305659 0.108080020784618  10.9417596034696 0.324240062353859  L 13.9653035935564 2.86827747466874  L 13.9653035935564 0.436477007014808  C 13.9653035935564 0.320083138477525  14.002478314746 0.224473889321901  14.0768277571252 0.149649259547935  C 14.1511771995043 0.0748246297739676  14.2461792647666 0.0374123148869838  14.361833952912 0.0374123148869838  L 16.7410161090459 0.0374123148869838  C 16.8566707971912 0.0374123148869838  16.9516728624535 0.0748246297739676  17.0260223048327 0.149649259547935  C 17.1003717472119 0.224473889321901  17.1375464684015 0.320083138477525  17.1375464684015 0.436477007014808  L 17.1375464684015 5.52455183164458  L 19.8513011152416 7.79423226812159  C 19.9339116067741 7.86074305014289  19.9793473771169 7.95011691348402  19.9876084262701 8.06235385814497  Z " fill-rule="nonzero" fill="#ffffff" stroke="none" transform="matrix(1 0 0 1 58 15 )" />
  </g>
</svg>