<?xml version="1.0" encoding="utf-8"?>
<svg version="1.1" xmlns:xlink="http://www.w3.org/1999/xlink" width="15px" height="15px" xmlns="http://www.w3.org/2000/svg">
  <g transform="matrix(1 0 0 1 -52 -595 )">
    <path d="M 8.974609375 7.744140625  L 10.44921875 9.228515625  L 8.88671875 10.791015625  L 7.412109375 12.275390625  L 7.119140625 12.568359375  C 6.69596354166667 12.9850260416667  6.20279947916667 13.2682291666667  5.6396484375 13.41796875  C 5.07649739583333 13.5677083333333  4.51822916666667 13.57421875  3.96484375 13.4375  C 3.86067708333333 13.8932291666667  3.62630208333333 14.267578125  3.26171875 14.560546875  C 2.89713541666667 14.853515625  2.47721354166667 15  2.001953125 15  C 1.44856770833333 15  0.9765625 14.8030598958333  0.5859375 14.4091796875  C 0.1953125 14.0152994791667  0 13.5416666666667  0 12.98828125  C 0 12.51953125  0.144856770833333 12.1028645833333  0.4345703125 11.73828125  C 0.724283854166667 11.3736979166667  1.09375 11.1393229166667  1.54296875 11.03515625  C 1.39973958333333 10.4752604166667  1.40299479166667 9.912109375  1.552734375 9.345703125  C 1.70247395833333 8.779296875  1.98893229166667 8.28450520833333  2.412109375 7.861328125  L 2.529296875 7.744140625  L 4.00390625 9.228515625  L 3.896484375 9.3359375  C 3.65559895833333 9.57682291666667  3.53515625 9.86653645833333  3.53515625 10.205078125  C 3.53515625 10.5436197916667  3.65559895833333 10.8365885416667  3.896484375 11.083984375  C 4.13736979166667 11.3248697916667  4.42708333333333 11.4453125  4.765625 11.4453125  C 5.10416666666667 11.4453125  5.39388020833333 11.3248697916667  5.634765625 11.083984375  L 5.927734375 10.791015625  L 7.40234375 9.306640625  L 8.974609375 7.744140625  Z M 5.6591796875 1.7138671875  C 6.2158203125 1.86686197916667  6.70247395833333 2.15169270833333  7.119140625 2.568359375  L 7.236328125 2.685546875  L 5.751953125 4.169921875  L 5.634765625 4.052734375  C 5.39388020833333 3.81184895833333  5.10416666666667 3.69140625  4.765625 3.69140625  C 4.42708333333333 3.69140625  4.13736979166667 3.81184895833333  3.896484375 4.052734375  C 3.65559895833333 4.29361979166666  3.53515625 4.5849609375  3.53515625 4.9267578125  C 3.53515625 5.2685546875  3.65559895833333 5.55989583333333  3.896484375 5.80078125  L 4.1796875 6.083984375  L 5.6640625 7.568359375  L 7.2265625 9.130859375  L 5.751953125 10.615234375  L 4.1796875 9.052734375  L 2.705078125 7.568359375  L 2.412109375 7.275390625  C 1.96940104166667 6.83919270833333  1.67643229166667 6.31998697916667  1.533203125 5.7177734375  C 1.38997395833333 5.11555989583333  1.40625 4.53125  1.58203125 3.96484375  C 1.12630208333333 3.8671875  0.751953125 3.63606770833333  0.458984375 3.271484375  C 0.166015625 2.90690104166667  0.01953125 2.48697916666667  0.01953125 2.01171875  C 0.01953125 1.45833333333333  0.21484375 0.984700520833333  0.60546875 0.590820312500001  C 0.99609375 0.196940104166665  1.46809895833333 0  2.021484375 0  C 2.51627604166667 0  2.95084635416667 0.159505208333332  3.3251953125 0.478515624999999  C 3.69954427083333 0.797526041666665  3.92578125 1.19791666666667  4.00390625 1.6796875  C 4.55078125 1.54947916666667  5.1025390625 1.56087239583333  5.6591796875 1.7138671875  Z M 14.5068359375 11.6748046875  C 14.8356119791667 12.0491536458333  15 12.4869791666667  15 12.98828125  C 15 13.5416666666667  14.8046875 14.0152994791667  14.4140625 14.4091796875  C 14.0234375 14.8030598958333  13.5514322916667 15  12.998046875 15  C 12.5162760416667 15  12.08984375 14.8470052083333  11.71875 14.541015625  C 11.34765625 14.2350260416667  11.1165364583333 13.8509114583333  11.025390625 13.388671875  C 10.4654947916667 13.5709635416667  9.88118489583333 13.5904947916667  9.2724609375 13.447265625  C 8.66373697916667 13.3040364583333  8.13802083333333 13.0110677083333  7.6953125 12.568359375  L 7.587890625 12.451171875  L 9.0625 10.966796875  L 9.1796875 11.083984375  C 9.42057291666667 11.3248697916667  9.71028645833333 11.4453125  10.048828125 11.4453125  C 10.3873697916667 11.4453125  10.6770833333333 11.3248697916667  10.91796875 11.083984375  C 11.1588541666667 10.8430989583333  11.279296875 10.5533854166667  11.279296875 10.21484375  C 11.279296875 9.87630208333333  11.1588541666667 9.58658854166666  10.91796875 9.345703125  L 10.625 9.052734375  L 9.140625 7.568359375  L 7.578125 6.005859375  L 9.0625 4.521484375  L 10.625 6.083984375  L 12.109375 7.568359375  L 12.392578125 7.861328125  C 12.8092447916667 8.27799479166667  13.0940755208333 8.76790364583333  13.2470703125 9.3310546875  C 13.4000651041667 9.89420572916666  13.408203125 10.4524739583333  13.271484375 11.005859375  C 13.7662760416667 11.0774739583333  14.1780598958333 11.3004557291667  14.5068359375 11.6748046875  Z M 14.39453125 0.590820312500001  C 14.78515625 0.984700520833333  14.98046875 1.45833333333333  14.98046875 2.01171875  C 14.98046875 2.51302083333333  14.814453125 2.95247395833333  14.482421875 3.330078125  C 14.150390625 3.70768229166666  13.7369791666667 3.93229166666667  13.2421875 4.00390625  C 13.4114583333333 4.55729166666666  13.4212239583333 5.1318359375  13.271484375 5.7275390625  C 13.1217447916667 6.3232421875  12.8287760416667 6.83919270833333  12.392578125 7.275390625  L 12.275390625 7.392578125  L 10.80078125 5.908203125  L 10.91796875 5.791015625  C 11.1588541666667 5.55013020833333  11.279296875 5.26041666666666  11.279296875 4.921875  C 11.279296875 4.58333333333333  11.1588541666667 4.29361979166666  10.91796875 4.052734375  C 10.6770833333333 3.81184895833333  10.3873697916667 3.69140625  10.048828125 3.69140625  C 9.71028645833333 3.69140625  9.42057291666667 3.81184895833333  9.1796875 4.052734375  L 8.88671875 4.345703125  L 7.40234375 5.830078125  L 5.83984375 7.392578125  L 4.35546875 5.908203125  L 5.927734375 4.345703125  L 7.412109375 2.861328125  L 7.6953125 2.568359375  C 8.13151041666667 2.13216145833333  8.64908854166667 1.8408203125  9.248046875 1.6943359375  C 9.84700520833333 1.5478515625  10.4264322916667 1.55924479166667  10.986328125 1.728515625  C 11.0579427083333 1.240234375  11.2809244791667 0.830078124999999  11.6552734375 0.498046875  C 12.0296223958333 0.166015625000001  12.470703125 0  12.978515625 0  C 13.5319010416667 0  14.00390625 0.196940104166665  14.39453125 0.590820312500001  Z " fill-rule="nonzero" fill="#ffffff" stroke="none" transform="matrix(1 0 0 1 52 595 )" />
  </g>
</svg>