<?xml version="1.0" encoding="utf-8"?>
<svg version="1.1" xmlns:xlink="http://www.w3.org/1999/xlink" width="18px" height="20px" xmlns="http://www.w3.org/2000/svg">
  <g transform="matrix(1 0 0 1 -617 -19 )">
    <path d="M 1.38461538461538 15.3571428571429  L 1.38461538461538 18.5714285714286  L 4.5 18.5714285714286  L 4.5 15.3571428571429  L 1.38461538461538 15.3571428571429  Z M 5.19230769230769 15.3571428571429  L 5.19230769230769 18.5714285714286  L 8.65384615384615 18.5714285714286  L 8.65384615384615 15.3571428571429  L 5.19230769230769 15.3571428571429  Z M 1.38461538461538 11.0714285714286  L 1.38461538461538 14.6428571428571  L 4.5 14.6428571428571  L 4.5 11.0714285714286  L 1.38461538461538 11.0714285714286  Z M 5.19230769230769 11.0714285714286  L 5.19230769230769 14.6428571428571  L 8.65384615384615 14.6428571428571  L 8.65384615384615 11.0714285714286  L 5.19230769230769 11.0714285714286  Z M 1.38461538461538 7.14285714285714  L 1.38461538461538 10.3571428571429  L 4.5 10.3571428571429  L 4.5 7.14285714285714  L 1.38461538461538 7.14285714285714  Z M 9.34615384615385 15.3571428571429  L 9.34615384615385 18.5714285714286  L 12.8076923076923 18.5714285714286  L 12.8076923076923 15.3571428571429  L 9.34615384615385 15.3571428571429  Z M 5.19230769230769 7.14285714285714  L 5.19230769230769 10.3571428571429  L 8.65384615384615 10.3571428571429  L 8.65384615384615 7.14285714285714  L 5.19230769230769 7.14285714285714  Z M 13.5 15.3571428571429  L 13.5 18.5714285714286  L 16.6153846153846 18.5714285714286  L 16.6153846153846 15.3571428571429  L 13.5 15.3571428571429  Z M 9.34615384615385 11.0714285714286  L 9.34615384615385 14.6428571428571  L 12.8076923076923 14.6428571428571  L 12.8076923076923 11.0714285714286  L 9.34615384615385 11.0714285714286  Z M 5.43569711538462 5.25111607142857  C 5.50420673076923 5.18043154761905  5.53846153846154 5.09672619047619  5.53846153846154 5  L 5.53846153846154 1.78571428571429  C 5.53846153846154 1.6889880952381  5.50420673076923 1.60528273809524  5.43569711538462 1.53459821428571  C 5.3671875 1.46391369047619  5.28605769230769 1.42857142857143  5.19230769230769 1.42857142857143  L 4.5 1.42857142857143  C 4.40625 1.42857142857143  4.32512019230769 1.46391369047619  4.25661057692308 1.53459821428571  C 4.18810096153846 1.60528273809524  4.15384615384615 1.6889880952381  4.15384615384615 1.78571428571429  L 4.15384615384615 5  C 4.15384615384615 5.09672619047619  4.18810096153846 5.18043154761905  4.25661057692308 5.25111607142857  C 4.32512019230769 5.32180059523809  4.40625 5.35714285714286  4.5 5.35714285714286  L 5.19230769230769 5.35714285714286  C 5.28605769230769 5.35714285714286  5.3671875 5.32180059523809  5.43569711538462 5.25111607142857  Z M 13.5 11.0714285714286  L 13.5 14.6428571428571  L 16.6153846153846 14.6428571428571  L 16.6153846153846 11.0714285714286  L 13.5 11.0714285714286  Z M 9.34615384615385 7.14285714285714  L 9.34615384615385 10.3571428571429  L 12.8076923076923 10.3571428571429  L 12.8076923076923 7.14285714285714  L 9.34615384615385 7.14285714285714  Z M 13.5 7.14285714285714  L 13.5 10.3571428571429  L 16.6153846153846 10.3571428571429  L 16.6153846153846 7.14285714285714  L 13.5 7.14285714285714  Z M 13.7433894230769 5.25111607142857  C 13.8118990384615 5.18043154761905  13.8461538461538 5.09672619047619  13.8461538461538 5  L 13.8461538461538 1.78571428571429  C 13.8461538461538 1.6889880952381  13.8118990384615 1.60528273809524  13.7433894230769 1.53459821428571  C 13.6748798076923 1.46391369047619  13.59375 1.42857142857143  13.5 1.42857142857143  L 12.8076923076923 1.42857142857143  C 12.7139423076923 1.42857142857143  12.6328125 1.46391369047619  12.5643028846154 1.53459821428571  C 12.4957932692308 1.60528273809524  12.4615384615385 1.6889880952381  12.4615384615385 1.78571428571429  L 12.4615384615385 5  C 12.4615384615385 5.09672619047619  12.4957932692308 5.18043154761905  12.5643028846154 5.25111607142857  C 12.6328125 5.32180059523809  12.7139423076923 5.35714285714286  12.8076923076923 5.35714285714286  L 13.5 5.35714285714286  C 13.59375 5.35714285714286  13.6748798076923 5.32180059523809  13.7433894230769 5.25111607142857  Z M 17.5889423076923 3.28125  C 17.8629807692308 3.5639880952381  18 3.89880952380952  18 4.28571428571429  L 18 18.5714285714286  C 18 18.9583333333333  17.8629807692308 19.2931547619048  17.5889423076923 19.5758928571429  C 17.3149038461538 19.858630952381  16.9903846153846 20  16.6153846153846 20  L 1.38461538461538 20  C 1.00961538461538 20  0.685096153846154 19.858630952381  0.411057692307692 19.5758928571429  C 0.137019230769231 19.2931547619048  0 18.9583333333333  0 18.5714285714286  L 0 4.28571428571429  C 0 3.89880952380952  0.137019230769231 3.5639880952381  0.411057692307692 3.28125  C 0.685096153846154 2.9985119047619  1.00961538461538 2.85714285714286  1.38461538461538 2.85714285714286  L 2.76923076923077 2.85714285714286  L 2.76923076923077 1.78571428571429  C 2.76923076923077 1.29464285714286  2.93870192307692 0.874255952380951  3.27764423076923 0.524553571428572  C 3.61658653846154 0.174851190476191  4.02403846153846 0  4.5 0  L 5.19230769230769 0  C 5.66826923076923 0  6.07572115384616 0.174851190476191  6.41466346153846 0.524553571428572  C 6.75360576923077 0.874255952380951  6.92307692307692 1.29464285714286  6.92307692307692 1.78571428571429  L 6.92307692307692 2.85714285714286  L 11.0769230769231 2.85714285714286  L 11.0769230769231 1.78571428571429  C 11.0769230769231 1.29464285714286  11.2463942307692 0.874255952380951  11.5853365384615 0.524553571428572  C 11.9242788461538 0.174851190476191  12.3317307692308 0  12.8076923076923 0  L 13.5 0  C 13.9759615384615 0  14.3834134615385 0.174851190476191  14.7223557692308 0.524553571428572  C 15.0612980769231 0.874255952380951  15.2307692307692 1.29464285714286  15.2307692307692 1.78571428571429  L 15.2307692307692 2.85714285714286  L 16.6153846153846 2.85714285714286  C 16.9903846153846 2.85714285714286  17.3149038461538 2.9985119047619  17.5889423076923 3.28125  Z " fill-rule="nonzero" fill="#0066ff" stroke="none" transform="matrix(1 0 0 1 617 19 )" />
  </g>
</svg>