<?xml version="1.0" encoding="utf-8"?>
<svg version="1.1" xmlns:xlink="http://www.w3.org/1999/xlink" width="20px" height="20px" xmlns="http://www.w3.org/2000/svg">
  <g transform="matrix(1 0 0 1 -327 -19 )">
    <path d="M 13.6049107142857 1.45089285714286  C 12.4590773809524 0.959821428571428  11.2574404761905 0.714285714285714  10 0.714285714285714  C 8.74255952380952 0.714285714285714  7.54092261904762 0.959821428571428  6.39508928571429 1.45089285714286  C 5.24925595238095 1.94196428571429  4.26153273809524 2.60230654761905  3.43191964285714 3.43191964285714  C 2.60230654761905 4.26153273809524  1.94196428571429 5.24925595238095  1.45089285714286 6.39508928571429  C 0.959821428571429 7.54092261904762  0.714285714285714 8.74255952380952  0.714285714285714 10  C 0.714285714285714 11.2574404761905  0.959821428571429 12.4590773809524  1.45089285714286 13.6049107142857  C 1.94196428571429 14.750744047619  2.60230654761905 15.7384672619048  3.43191964285714 16.5680803571429  C 4.26153273809524 17.397693452381  5.24925595238095 18.0580357142857  6.39508928571429 18.5491071428571  C 7.54092261904762 19.0401785714286  8.74255952380952 19.2857142857143  10 19.2857142857143  C 11.2574404761905 19.2857142857143  12.4590773809524 19.0401785714286  13.6049107142857 18.5491071428571  C 14.750744047619 18.0580357142857  15.7384672619048 17.397693452381  16.5680803571429 16.5680803571429  C 17.397693452381 15.7384672619048  18.0580357142857 14.750744047619  18.5491071428571 13.6049107142857  C 19.0401785714286 12.4590773809524  19.2857142857143 11.2574404761905  19.2857142857143 10  C 19.2857142857143 8.74255952380952  19.0401785714286 7.54092261904762  18.5491071428571 6.39508928571429  C 18.0580357142857 5.24925595238095  17.397693452381 4.26153273809524  16.5680803571429 3.43191964285714  C 15.7384672619048 2.60230654761905  14.750744047619 1.94196428571429  13.6049107142857 1.45089285714286  Z M 6.11607142857143 0.792410714285714  C 7.35119047619048 0.264136904761905  8.64583333333333 0  10 0  C 11.3541666666667 0  12.6488095238095 0.264136904761905  13.8839285714286 0.792410714285714  C 15.1190476190476 1.32068452380952  16.1830357142857 2.03125  17.0758928571429 2.92410714285714  C 17.96875 3.81696428571429  18.6793154761905 4.88095238095238  19.2075892857143 6.11607142857143  C 19.7358630952381 7.35119047619047  20 8.64583333333333  20 10  C 20 11.3541666666667  19.7358630952381 12.6488095238095  19.2075892857143 13.8839285714286  C 18.6793154761905 15.1190476190476  17.96875 16.1830357142857  17.0758928571429 17.0758928571429  C 16.1830357142857 17.96875  15.1190476190476 18.6793154761905  13.8839285714286 19.2075892857143  C 12.6488095238095 19.7358630952381  11.3541666666667 20  10 20  C 8.64583333333333 20  7.35119047619048 19.7358630952381  6.11607142857143 19.2075892857143  C 4.88095238095238 18.6793154761905  3.81696428571429 17.96875  2.92410714285714 17.0758928571429  C 2.03125 16.1830357142857  1.32068452380952 15.1190476190476  0.792410714285714 13.8839285714286  C 0.264136904761905 12.6488095238095  0 11.3541666666667  0 10  C 0 8.64583333333333  0.264136904761905 7.35119047619047  0.792410714285714 6.11607142857143  C 1.32068452380952 4.88095238095238  2.03125 3.81696428571429  2.92410714285714 2.92410714285714  C 3.81696428571429 2.03125  4.88095238095238 1.32068452380952  6.11607142857143 0.792410714285714  Z M 5.17857142857143 9.28571428571429  L 5.53571428571429 9.28571428571429  C 5.65476190476191 9.28571428571429  5.71428571428571 9.34523809523809  5.71428571428571 9.46428571428571  L 5.71428571428571 14.8214285714286  C 5.71428571428571 14.9404761904762  5.65476190476191 15  5.53571428571429 15  L 5.17857142857143 15  C 5.05952380952381 15  5 14.9404761904762  5 14.8214285714286  L 5 9.46428571428571  C 5 9.34523809523809  5.05952380952381 9.28571428571429  5.17857142857143 9.28571428571429  Z M 8.98995535714286 10.4185267857143  C 9.26897321428572 10.1395089285714  9.60565476190476 10  10 10  C 10.3943452380952 10  10.7310267857143 10.1395089285714  11.0100446428571 10.4185267857143  C 11.2890625 10.6975446428571  11.4285714285714 11.0342261904762  11.4285714285714 11.4285714285714  C 11.4285714285714 11.6889880952381  11.3634672619048 11.9270833333333  11.2332589285714 12.1428571428571  C 11.1030505952381 12.358630952381  10.9300595238095 12.5297619047619  10.7142857142857 12.65625  L 10.7142857142857 13.9285714285714  C 10.7142857142857 14.0327380952381  10.6808035714286 14.1183035714286  10.6138392857143 14.1852678571429  C 10.546875 14.2522321428571  10.4613095238095 14.2857142857143  10.3571428571429 14.2857142857143  L 9.64285714285714 14.2857142857143  C 9.53869047619048 14.2857142857143  9.453125 14.2522321428571  9.38616071428571 14.1852678571429  C 9.31919642857143 14.1183035714286  9.28571428571429 14.0327380952381  9.28571428571429 13.9285714285714  L 9.28571428571429 12.65625  C 9.06994047619048 12.5297619047619  8.89694940476191 12.358630952381  8.76674107142857 12.1428571428571  C 8.63653273809524 11.9270833333333  8.57142857142857 11.6889880952381  8.57142857142857 11.4285714285714  C 8.57142857142857 11.0342261904762  8.7109375 10.6975446428571  8.98995535714286 10.4185267857143  Z M 5.69754464285714 2.578125  C 7.01078869047619 1.81175595238095  8.44494047619048 1.42857142857143  10 1.42857142857143  C 11.5550595238095 1.42857142857143  12.9892113095238 1.81175595238095  14.3024553571429 2.578125  C 15.6156994047619 3.34449404761905  16.655505952381 4.38430059523809  17.421875 5.69754464285714  C 18.188244047619 7.01078869047619  18.5714285714286 8.44494047619047  18.5714285714286 10  C 18.5714285714286 11.5550595238095  18.188244047619 12.9892113095238  17.421875 14.3024553571429  C 16.655505952381 15.6156994047619  15.6156994047619 16.655505952381  14.3024553571429 17.421875  C 12.9892113095238 18.188244047619  11.5550595238095 18.5714285714286  10 18.5714285714286  C 8.44494047619048 18.5714285714286  7.01078869047619 18.188244047619  5.69754464285714 17.421875  C 4.3843005952381 16.655505952381  3.34449404761905 15.6156994047619  2.578125 14.3024553571429  C 1.81175595238095 12.9892113095238  1.42857142857143 11.5550595238095  1.42857142857143 10  C 1.42857142857143 8.44494047619047  1.81175595238095 7.01078869047619  2.578125 5.69754464285714  C 3.34449404761905 4.38430059523809  4.3843005952381 3.34449404761905  5.69754464285714 2.578125  Z M 7.22098214285714 4.00669642857143  C 6.45461309523809 4.77306547619047  6.07142857142857 5.69940476190476  6.07142857142857 6.78571428571429  L 6.07142857142857 7.85714285714286  C 6.07142857142857 7.96130952380952  6.10491071428571 8.046875  6.171875 8.11383928571429  C 6.23883928571429 8.18080357142857  6.32440476190476 8.21428571428571  6.42857142857143 8.21428571428571  L 7.14285714285714 8.21428571428571  C 7.24702380952381 8.21428571428571  7.33258928571429 8.18080357142857  7.39955357142857 8.11383928571429  C 7.46651785714286 8.046875  7.5 7.96130952380952  7.5 7.85714285714286  L 7.5 6.78571428571429  C 7.5 6.09375  7.74367559523809 5.50409226190476  8.23102678571429 5.01674107142857  C 8.71837797619048 4.52938988095238  9.30803571428571 4.28571428571429  10 4.28571428571429  C 10.6919642857143 4.28571428571429  11.2816220238095 4.52938988095238  11.7689732142857 5.01674107142857  C 12.2563244047619 5.50409226190476  12.5 6.09375  12.5 6.78571428571429  L 12.5 7.85714285714286  C 12.5 7.96130952380952  12.5334821428571 8.046875  12.6004464285714 8.11383928571429  C 12.6674107142857 8.18080357142857  12.7529761904762 8.21428571428571  12.8571428571429 8.21428571428571  L 13.5714285714286 8.21428571428571  C 13.6755952380952 8.21428571428571  13.7611607142857 8.18080357142857  13.828125 8.11383928571429  C 13.8950892857143 8.046875  13.9285714285714 7.96130952380952  13.9285714285714 7.85714285714286  L 13.9285714285714 6.78571428571429  C 13.9285714285714 5.69940476190476  13.5453869047619 4.77306547619047  12.7790178571429 4.00669642857143  C 12.0126488095238 3.24032738095238  11.0863095238095 2.85714285714286  10 2.85714285714286  C 8.91369047619048 2.85714285714286  7.98735119047619 3.24032738095238  7.22098214285714 4.00669642857143  Z M 15.5022321428571 15.5022321428571  C 15.6436011904762 15.3608630952381  15.7142857142857 15.1934523809524  15.7142857142857 15  L 15.7142857142857 9.28571428571429  C 15.7142857142857 9.09226190476191  15.6436011904762 8.92485119047619  15.5022321428571 8.78348214285714  C 15.3608630952381 8.64211309523809  15.1934523809524 8.57142857142857  15 8.57142857142857  L 5 8.57142857142857  C 4.80654761904762 8.57142857142857  4.63913690476191 8.64211309523809  4.49776785714286 8.78348214285714  C 4.35639880952381 8.92485119047619  4.28571428571429 9.09226190476191  4.28571428571429 9.28571428571429  L 4.28571428571429 15  C 4.28571428571429 15.1934523809524  4.35639880952381 15.3608630952381  4.49776785714286 15.5022321428571  C 4.63913690476191 15.6436011904762  4.80654761904762 15.7142857142857  5 15.7142857142857  L 15 15.7142857142857  C 15.1934523809524 15.7142857142857  15.3608630952381 15.6436011904762  15.5022321428571 15.5022321428571  Z " fill-rule="nonzero" fill="#0066ff" stroke="none" transform="matrix(1 0 0 1 327 19 )" />
  </g>
</svg>